<?xml version="1.0" encoding="UTF-8"?>
<svg version="1.1" viewBox="0 0 2014 2048" width="2076" height="2111" xmlns="http://www.w3.org/2000/svg">
<path transform="translate(1173,395)" d="m0 0 25 1 20 2 40 10 12 5v1l-10-1-17-3 31 9 26 9 27 11 13 7 18 14 18 13 11 9 14 12 11 9 7 7 7 8 11 12 7 8 13 17 9 14-1 2-10-11-11-14-12-13-14-15-9-9 1 3 8 11 13 15 8 9 12 16 26 32 12 15 9 14 13 24 8 16 14 31 11 30 6 18 10 35 7 30 7 41 2 23 1 14v40h-2l-1-4v49l-3 39-5 39-6 35-8 32-12 36-9 22-5 15-4 15-13 25-8 12-9 12-9 11-15 15-11 9-14 12-13 10-20 15-17 12-21 14-21 13-13 8-18 10-6 2v-2l-26 12-23 12-21 12-20 9-15 5-13 3-8 1h15l19-4 27-9-6 7-10 8-20 6-16 3h-34l-16-4-16-8-10-9-6-7-6-13-2-10v-13l4-16 5-12 8-14 13-16 11-11-4 2-10 10v-3l14-14 8-4 7-6 9-11 10-13 8-12 12-17 2-6-5-1-17 2-50 1-44 2-51 1-4 4-17 25-13 18-16 23-14 20-13 18-11 15-12 15-11 7-12 5-19 4-11 1h-17l-19-2-25-6-12-6-8-7-6-10-3-9-1-8v-13l4-24 9-25 12-26 9-19 3-11 1-10-1-4h-7l-13 16-16 16-14 11-13 10-22 14-23 13-16 9-16 6-11 2h-14l-14-3-12-5-11-6-11-9-8-7-11-14-8-15-5-14-2-10v-23l4-16 9-17 9-11 9-9 7-6 7-3 32-32 7-8 12-12 7-8 6-6 1-3-6-2-10-6-10-9-6-7-8-15 1-2 7 10 4 6 6 7 13 9 8 4 8 3v7l4-3v-7l-15-6-14-10-8-9-8-13-4-4-6-1-43 9-9 1h-13l-16-2-16-5-12-7-11-9-7-7-11-15-9-15-9-19-7-22-4-22v-33l2-12v-6l-4 12h-1l1-9 6-20 7-16 8-15 9-12 9-10 9-8 15-10 17-7 13-3 8-1h25l21 3 16 5 9 5 3 2 4-1 15-15 11-9 11-10 17-13 18-12 21-12 18-10 19-9 25-10h2v-2l-27 7-8 3-3-1 7-4 37-9 27-5 15-1v1l-26 5-6 2 25-4 27-2h25l24 1 10-30 9-19 7-11 10-13 7-8 8-7 14-10 16-8 16-5 17-3h33l23 4 20 6 20 8 15 9 11 9 11 11 9 13 8 16 6 14 5 17 2 11-2 19-5 25-5 15-9 19-8 11-12 12-14 9-11 5-13 4-14 1 6 11 3 6-1-6-3-6v-2l17-3 16-6 14-9 10-9 7-8 9-15 8-19 2-5 1 4-4 15-6 14-9 13-14 14-13 8-16 7-7 2h-8l4 11 2 8 2 1h17l33-2 35-4 29-5 32-8 36-12 20-9 15-8 20-14 4-4 1-3v-8l-9-40-6-25-6-22-8-21-8-16-9-13-9-10-13-13-19-14-17-11-20-13-17-9-19-6-24-5-25-3-15-1h-41l-24 2-8 1v2l4 1-3 1-62 6-68 9-11 1h-9l-14-2-13-5-12-9-10-13-8-16-3-12v-13l4-12 7-11 12-12 15-10 16-8 18-7 30-9 25-5 28-4 23-2 18-1h58l45 3 27 3v-2l-8-1-18-4z" fill="#D0181F"/>
<path transform="translate(1092,418)" d="m0 0 47 1 39 3 35 5 30 6 30 8 22 8 20 9 11 7 12 11 8 7 10 9 12 11 26 26 9 11 11 12 11 14 14 19 10 14 11 18 12 19 16 30 10 18 3 3 9 20 12 37 9 39 9 49 6 36 3 29 1 16v50l-3-4-1-42-1-17-3-19v13l1 28v36l-15 2-15 5 16-3 13-1v3l-18 4-61 18-15 4-41 14-45 15-47 15-39 12-28 8-49 13h-4l-2-5-5-1-2-15v-21l-2-9-6-10v-5l5-7 7-1 4-8v-10l-5-5-7-1-4 3-5-1-6-4-7-4-4-3 2 4h-4l3 3-7 3-3 1-4-3-6 1-7 8v9l7 8 3 1 2 6 5 4-1 7-4 6-3 11v14l3 7 3 9-1 4h-8l-1 7h-34l-3-18-6-16-6-8-3-2-9 1-5 1-2-14v-16l8-24 4-16 1-7v-11l-2-15-6-26-3-10 4-5 4-8 3-12 1-10v-29l-3-21-6-18-4-18-6-12-2-15-5-10-7-7-6-9-7-5-7-1h-8l3-4 3-1-7 1-2 2-4-4-2-1 1 4-6-2-4-2h-8l-22 7h-4v2l3 1-3 6-11 6-10 9-9 9-3 5-1 10-1 7-8 10-5 5-2 3 2 1-8 17-4 14-1 12v3h3v18l2 25 7 14 5 13 2 3-1 5-5 15-2 16v11l3 15 7 19 6 13 2 6-2 18-2 12-5-3-7 1-6 8-6 13-3 9-3 2-67-7-45-5-29-4-24-6-32-10-41-14-45-16-21-8-23-8-47-18-15-6-9-3 5 12 14 10 18 13 24 16 20 12 5 5 4 3h8l47-8 8 1 6 3 7 9 7 12 4 5 13 9 8 4 15 4 3 4v9l-6 9-2 2 9 4 4 1-2 5-10-1-8-2 3-5 8-11 1-8-2-4-5-1-4 1-12-4-11-7-10-9-6-10-7-11-4-2h-12l-41 7h-20l-18-3-13-5-13-9-15-15-11-15-11-21-7-21-4-20v-32l4-22 8-24 10-19 12-16 11-11 10-7 16-8 14-4 18-2h17l18 2 16 5 8 5 5 1 3-1 2-4 10-11 5-5 13-11 14-11 13-10 19-12 18-10 4-2 7-1 32-11 24-5 29-6 23-3 14-1h31l22 1 4-4 9-32 9-21 9-15 8-10 8-9 14-11 19-10 17-5 12-2h30l19 3 21 6 21 9 13 8 10 8 9 9 10 15 8 19 4 16 2 17v15l-2 18-5 20-6 15-7 11-9 10-9 8-12 7-13 5-15 3-11 1 4 7 7 14 4 16 4 4 2 1h14l29-2 25-3 36-7 31-8 36-12 26-11 19-10 8-5 5-5 6-4 10-7 5-1 4-5 2-8-1-25-4-34-6-29-8-24-11-23-9-14-11-14-21-21-11-9-18-14-19-14-16-9-18-8-25-7-25-5-23-3h-53l-38 2-42 4-45 6-46 8h-10l-9-3-8-7-7-11v-12l4-8 7-8-7 6-6 10-1 3v10l5 10 7 9 9 5 4 2-8-1-7-4-8-8-6-10-1-4v-9l4-10 8-10 12-9 17-9 19-7 4-3 26-8 31-6 23-3 17-1z" fill="#FCCF05"/>
<path transform="translate(1173,395)" d="m0 0 25 1 20 2 40 10 12 5v1l-10-1-17-3 31 9 26 9 27 11 13 7 18 14 18 13 11 9 14 12 11 9 7 7 7 8 11 12 7 8 13 17 9 14-1 2-10-11-11-14-12-13-14-15-9-9 1 3 8 11 13 15 8 9 12 16 26 32 12 15 9 14 13 24 8 16 14 31 11 30 6 18 10 35 7 30 7 41 2 23 1 14v40h-2l-1-4v49l-3 39-5 39-6 35-8 32-12 36-9 22-5 15-4 15-13 25-8 12-9 12-9 11-15 15-11 9-14 12-13 10-20 15-17 12-21 14-21 13-13 8-18 10-6 2v-2l-26 12-15 8-7 1 4-4-16 8-20 9-7 3-3-1 20-11 18-11 26-15 18-10 23-14 11-7 2-5-9 3v2l-12 6-24 14-29 16-21 12-16 9-15 7-13 4-17 3h-15l-16-4-8-5-4-4v-2l5 1 9 4 9 2h20l16-3 17-6 16-8 18-10 22-12 27-15 35-21-1-6-13-29-9-17h-3l-4-9 12-2 5 10-1-11 17-4 10-6 10-4 4-1h7l-3 3-14 6v1l8-1 13-5 18-12 8-4 9-3 3 1-4 4 14-3 6-4h2v-2l-6 1 1-3 28-11 17-9 8-11 11-18-20 8-5 5-17 9-43 16-30 10-25 7-25 6-5 3h-6l-1-5 20-4 34-10 4-2-57 11-5-1-2-6h-2l1 8-13 3h-3l-13-27v-3l3 2-5-10-2-6 26-2 35-6 13-4 7-5 13-4h7l-4 3-13 6 4 1 15-5 21-14 9-4 9-2-3 4 10-1 10-5 1-1-6-1 4-3 28-11 15-8 14-9 15-8 20-5 8-25 3-12-16 8-24 14-10 7 14-5 6-3 2 1-9 6-14 6-8 3h-3l-2 4-13 8-38 15-36 12-27 8-29 7h-2v2l-10 2h-26l-17 3h-18v-2l20-2 3-1-1-1-25 1-11-21-3-7-8-13-5-10 31-1-1 3h15l31-4 26-5 20-10 8-2h6l-3 3-14 6-1 1 9-1 11-4 21-14 9-4 9-2-4 5 15-3 6-4v-1h-5v-2l32-13 15-8 16-10 16-8 22-5 16-8 9-6-2-1 1-3 6-4 2-13 2-17-2 1-3 9-2 3v-10l-6 3-13 8-23 13-22 13-8 6 19-8 3-1v2l-10 6-14 6-10 3-2 4-14 8-41 16-36 12-25 7-25 6-3 1-1 2-7 1h-27l-16 3-22 1-3-1 1 6-3-2-1-3-15-1-5-1-16-31 1-4 13-4 41-11 25-7 39-12 25-8 43-14 75-25 19-5 40-12 19-5 6-1-4-1-19 3-8 1 4-3 13-4 5-1h10l-2-64v-16l2 3 3 19 1 17 1 42 1 1v-47l-3-37-6-40-8-42-7-34-7-26-11-32-7-15v-2l-4-2-13-25-12-22-13-21-16-25-14-18-8-11-11-13-12-14-12-13-25-25-8-7-12-11-11-9-7-6-15-8-25-10-23-7-30-7-35-6-26-3-29-2-47-1-38 1-26 2-26 4-26 6-21 7-5 3-20 8-13 7-9 7-5 5-5 6-4 10v9l3 7 6 9 9 8 4 1-9-7-9-14-1-3v-10l6-12 8-8 2 1-7 8-4 8v12l8 12 6 5 9 3h10l53-9 46-6 48-4 24-1h53l35 5 32 8 20 8 17 9 19 14 17 13 13 11 8 7 18 18 12 16 10 18 7 15 8 24 6 29 4 34 1 25-3 9-4 5-3 1 2-5 1-3v-8l-9-40-6-25-6-22-8-21-8-16-9-13-9-10-13-13-19-14-17-11-20-13-17-9-19-6-24-5-25-3-15-1h-41l-24 2-8 1v2l4 1-3 1-62 6-68 9-11 1h-9l-14-2-13-5-12-9-10-13-8-16-3-12v-13l4-12 7-11 12-12 15-10 16-8 18-7 30-9 25-5 28-4 23-2 18-1h58l45 3 27 3v-2l-8-1-18-4z" fill="#491A20"/>
<path transform="translate(1047,560)" d="m0 0h33l23 4 20 6 20 8 15 9 11 9 11 11 9 13 8 16 6 14 5 17 2 11-2 19-5 25-5 15-9 19-8 11-12 12-14 9-11 5-13 4-14 1 6 11 3 6-1-6-3-6v-2l17-3 16-6 14-9 10-9 7-8 9-15 8-19 2-5 1 4-4 15-6 14-9 13-14 14-13 8-16 7-7 2h-8l4 11 2 8 2 1h17l33-2 35-4 29-5 32-8 36-12 20-9 13-7 2 1-13 8-17 9-27 11-33 11-40 10-33 6-30 3-18 1h-14l-5-3-2-3-5-19-7-13-3-5 1-1 17-2 15-4 16-8 10-8 8-8 9-14 6-15 5-20 2-18v-15l-3-21-4-15-7-16-8-12-9-10-8-7-14-9-18-8-18-6-19-4-8-1h-30l-20 4-13 5-15 8-10 8-8 7-11 14-9 15-7 16-6 18-5 19-5 5-22-1h-31l-31 3-31 6-14 3-17 4-33 11-5 1-17 9-19 12-12 9-14 11-13 11-7 5-9 11-5 6-4 2-5-2-12-6-17-4-12-1h-17l-18 2-17 5-15 8-11 9-9 9-12 17-10 21-6 19-4 22v32l4 20 7 21 11 21 9 12 9 10 8 8 14 9 11 4 18 3h20l41-7h12l6 4 8 13 4 7 10 9 12 7 10 3 7-1 4 3 1 8-4 8-8 10 17 4 2-5-6-1-8-3 6-8 2-4v-9l-4-4-13-3-13-7-9-7-6-8-9-15-5-4-6-2-11 1-41 7h-8l-6-5-3-3-17-10-21-14-20-14-16-12-3-2-4-10v-2l9 2 20 8 48 18 25 9 55 20 66 22 25 7 22 4 43 5 74 8 11 1-1 4-14 18-13 18h-10l7 3-6 8-1 2-14-1-9-1 1-2-24-4-9-1v2l22 2-2 2h-13l-25-3-13-3-35-5v2l-12-3-5 1-1 1 22 7v2h-7l-9-2h-5l12 5 20 6 14 2v2l18 1 25 2h17l20 2-4 7-13 16-12 16-14 18-13-3-17-2-12-2h-9l-2 1-36-12-20-8-27-12-6-3-5 1-4 4v3l19 9-1-3 9 2 15 5 15 7 18 5 24 6 4 2v2l-14-2-8-2v2l9 3 27 8 12 2 1 1 9 1-6 8-10 13-5 8-4 8-5 4-7-1 6 2-3 4 1 1h3l-7 6 5-3 13-11 8-7 6-5 7-8 11-13 5-4 8-2h7l9 4 7 7 3 9v8l-3 15-6 15-12 22-9 20-6 16-4 16-1 6v16l3 10 6 8 6 4 13 4 12 2-15-4-12-6-7-8-3-8 1-16h1l2 18 5 8 6 5 17 5 20 3h29l16-3 11-4 9-8 26-34 13-18 14-19 16-23 14-20 13-19 6-4 5-1-7 1-7 6-11 16-13 18-11 16-13 18-12 17-14 19-13 16-7 8-7 6-1-2 11-16 13-18 12-17 13-18 14-19 10-14 9-12 10-13v-1l-5 3-13 16-29 38-10 14-15 20-11 16-10 13-7 6-14 4-7 1h-25l-19-3-16-5-2-5 9 2 19 4 15 2h20l15-3 8-4 12-15 14-19 13-18 14-20 12-17 15-22 11-16 8-10 6-5 7-3 6-1 49-1 45-2 51-4 32-4h15l12 2v1l-22-1-45 7-63 9-25 2-50 1-3 1 65-1 42-2 35-3 44-6h16l8 4 4 5 2 4v11l-8 15-13 16-11 14-11 13-12 14-9 10-29 29-11 15-8 15-3 12v11l3 9 7 9 10 7 6 3 2 4 9 4 12 3h25l19-4 27-9-6 7-10 8-20 6-16 3h-34l-16-4-16-8-10-9-6-7-6-13-2-10v-13l4-16 5-12 8-14 13-16 11-11-4 2-10 10v-3l14-14 8-4 7-6 9-11 10-13 8-12 12-17 2-6-5-1-17 2-50 1-44 2-51 1-4 4-17 25-13 18-16 23-14 20-13 18-11 15-12 15-11 7-12 5-19 4-11 1h-17l-19-2-25-6-12-6-8-7-6-10-3-9-1-8v-13l4-24 9-25 12-26 9-19 3-11 1-10-1-4h-7l-13 16-16 16-14 11-13 10-22 14-23 13-16 9-16 6-11 2h-14l-14-3-12-5-11-6-11-9-8-7-11-14-8-15-5-14-2-10v-23l4-16 9-17 9-11 9-9 7-6 7-3 32-32 7-8 12-12 7-8 6-6 1-3-6-2-10-6-10-9-6-7-8-15 1-2 7 10 4 6 6 7 13 9 8 4 8 3v7l4-3v-7l-15-6-14-10-8-9-8-13-4-4-6-1-43 9-9 1h-13l-16-2-16-5-12-7-11-9-7-7-11-15-9-15-9-19-7-22-4-22v-33l2-12v-6l-4 12h-1l1-9 6-20 7-16 8-15 9-12 9-10 9-8 15-10 17-7 13-3 8-1h25l21 3 16 5 9 5 3 2 4-1 15-15 11-9 11-10 17-13 18-12 21-12 18-10 19-9 25-10h2v-2l-27 7-8 3-3-1 7-4 37-9 27-5 15-1v1l-26 5-6 2 25-4 27-2h25l24 1 10-30 9-19 7-11 10-13 7-8 8-7 14-10 16-8 16-5z" fill="#4D1B21"/>
<path transform="translate(994,701)" d="m0 0h8l10 5-1-4 5 2 1 2 5-3h6l-2 2-5 3h11l6 3 7 6 6 9 7 8 3 7 2 15 6 12 6 25 4 11 3 21v29l-2 14-3 10-5 9-2 3 4 13 6 27 1 10v11l-3 16-7 23-3 8v16l1 14 9-3 7 1 6 7 5 10 4 14 1 13-9 4-21 6-16 3-13 2-25 2h-22l-21-2-15-2-25-6-17-6-8-4-6-5 4-11 8-16 5-6 7-1 4 3 2-11 2-18-7-18-4-9-5-15-2-11v-11l2-16 6-17-1-4-5-12-4-10-4-7-2-25v-9l1-9h-3l-1-9 4-16 5-13 4-8v-4l4-2 2-4 8-11v-10l3-9 5-6 5-2 2-4 9-8 11-6 2-5-2-1v-2l19-6z" fill="#46191F"/>
<path transform="translate(1373,1839)" d="m0 0h73l88 1-3 3 40 3 16 3 2 1-1 3-28 1-73 1 10 1 52 1 24 1 6 1v2l-5 2-1 2 60 1-1 2-4 1 27 1 123 1 2 2-4 1-228 1-635 1h-68l-412-1-110-1-6-1v-1l19-2 18-1-11-1 2-2 26-3 19-1-14-1 3-3 28-1v-4h-26v-3h94l-1-2-82-1 2-2 110-1-9-1v-1h445l198-2z" fill="#832422"/>
<path transform="translate(1557,1547)" d="m0 0 13 2 9-2 5 2 3 3 2 9 1 3-2 4v7l1 3-3 10 2 7v7l-1 5 3 16-3 7-1 6 3 6v14l-2 7 1 6 1 12-1 3 1 7-1 4 1 4-1 3v11l1 5-1 2 1 10v20l-2 5 2 12-1 6 1 2-2 3 1 13 1 4-1 6 2 3-3 6-3 3h-16l-9 1h-18l-4-1-1 1h-10l-3-1h-11l-3-3v-7l-4-8 2-4-1-4-2-3-2-13v-6l2-4-3-7-1-5 2-7-2-5-2-2v-12l-2-4 2-4v-7l-4-8v-8l-2-10v-15l-4-7 1-9-2-2-1-10v-7l-1-5 1-9-2 1v8l-2 4 2 5v7l-1 4 2 10-1 10-1 4v13l1 5-1 6 2 10v8l-3 10v6l3 5-1 10-1 9v18l2 12v17l-4 9-5 4-9 1h-19l-6-1-4-1-3-5-1-8 2-2-1-5-1-4 2-10-1-7 2-4v-13l-2-9-1-11 3-6-1-19-2-8 2-5-1-7-1-9 3-11v-16l-1-9-1-2v-12l-1-5 2-5-1-11 1-1 1-14-2-8 1-11 1-3-3-2v-15l5-5 5-1 8-1h11l11 1h18l12-1 4 1h6l3 2 1 9 1 4-1 6v9l2 5 1 9 1 7 1 5v4l1 12v7l1 3 1 7 3 5 1 12-1 5 1 5-2 6 4 2 1 13 1 3v20l3 10 3-1 1-7-2-4 1-9-1-5 2-5-2-7v-5l2-1-2-9v-7l2-4v-9l-2-4 1-9-1-5 3-4v-18l-1-2-1-21v-6l-1-7v-13l2-5 5-4h9zm-18 176v8l3-4-2-4zm-1 9-1 6 1 2 4-1-1-5-1-2z" fill="#47191F"/>
<path transform="translate(1314,1543)" d="m0 0h29l16 3 5 2v2l7 1 8 3 2 6 6 2 8 5-1 6 4 1 2 7 4 10 1 4v14l1 8-2 11v19l-2 6 1 5v18l2 5 1 10-3 2 2 4v12l-2 7v6l2 4-1 6-1 13 2 5 1 10-4 15v7l-2 3-2 7-6 7-4 2-4 4-5 2-4 4-12 3-13 4-7 1-7-1-4 2h-7l-5-2h-17l-5-1-1-2-8-2-4-3-8-2-5-5-8-3-8-16-2-3 1-43-2-4v-19l1-13-1-4 1-5-1-4 1-7-2-8 2-10-1-4 2-7v-7l-2-3 1-4 1-2v-7l-2-3 1-4 2-11-3-6 1-2v-14l3-6 1-9 5-2 4-10 5-4 9-5 1-2 9-3 9-2 7-3zm11 43-12 7-6 8 1 12 1 4-1 6v5l-2 4v9l3 3v23h-2l-1 9 2 7-1 7 1 3 1 13v10l-1 5v11l-2 2v8l1 3 1 15 2 5 1 4 8 5h20l9-8 3-6 1-6v-8l-2-7 2-10v-9l-2-1 1-7-2-5 1-15 1-6-2-4 2-8-1-11 1-6-1-9 2-2v-7l-2-6 1-9-1-2-1-22-4-5-1-5-5-3z" fill="#491A20"/>
<path transform="translate(681,1547)" d="m0 0 4 1h21l9 3 8 1 9 9 4 7 3 17 4 3v9l-2 5 1 6 1 7-1 6 1 4-2 5 2 3-1 8-6 10-5 11-5 1-2 5-10 6-5 1-5 2 7 2 8 3 9 5 6 7 4 9 1 12 3 9-1 13 2 7-1 5-1 2-1 13 2 11v8l-1 3 3 8v16l-3 4-45-2-7-6 1-13-3-2 2-7-1-6-1-5 1-6-1-8 2-8-2-8v-9l-1-5v-20l-3-5-3-4h-9l-10-1-2 1-10 1-2 2v7l-2 2-1 6v10l4 6-3 3 1 11-1 1v7l2 4v7l-2 3 1 7-1 2v17l2 2 1 5-3 5-5 4-13 1-5 1-6-1h-20l-3-2-1-17 1-8-1-1v-8l1-3-2-6 1-4 1-15 1-9-1-5v-6l-1-2v-6l2-2-1-14 1-3-1-6 1-1v-7l-1-2v-20l1-4-3-13 3-8v-17l-2-7v-9l1-7-1-7 1-3-2-9v-10l3-4-1-5-2-3 1-7 5-3 9-2h11l5 1h17l7-1h21l9 1zm-16 45-10 1h-6l-5 5 2 10-2 16 3 1-2 8 1 9-2 2v5l10 7 15-1h9l1-3 4-1 3-8 1-2 2-15v-21l-4-4-3-7z" fill="#47191F"/>
<path transform="translate(504,957)" d="m0 0 9 2 20 8 48 18 25 9 55 20 66 22 25 7 22 4 43 5 74 8 11 1-1 4-14 18-13 18h-10l7 3-6 8-1 2-14-1-9-1 1-2-24-4-9-1v2l22 2-2 2h-13l-25-3-13-3-35-5v2l-12-3-5 1-1 1 22 7v2h-7l-9-2h-5l12 5 20 6 14 2v2l18 1 25 2h17l20 2-4 7-13 16-12 16-14 18-13-3-17-2-12-2h-9l-2 1-36-12-20-8-27-12-8-4 6-7 29-31 6-7 11 2 6 1 2-5-6-1-8-3 6-8 2-4v-9l-4-4-13-3-13-7-9-7-6-8-9-15-5-4-6-2-11 1-41 7h-8l-6-5-3-3-17-10-21-14-20-14-16-12-3-2-4-10z" fill="#2B3E8B"/>
<path transform="translate(788,1547)" d="m0 0 8 1 3 1 6-1 22 1h11l9-2 9 1h8l5 1 4-2h12l2 1 2 7v12l3 10v11l-3 3-5 2h-24l-4 1-5-1-7 1-3-2-10 1-5 3-2 2v5l2 3v8h-2l2 6-1 12-1 1v5l3 4 1 9 4 3h18l6 1 11-1 5 1 8-1 5 2 5 5-3 15 1 6v8l-2 6-3 4-9-1h-10l-2 1h-20l-3-2-11 1-5 2 2 14-1 6v7l3 9-3 7v21l9 4h28l3 1 3-1h18l4 6v14l3 4-1 6-2 3 1 4 1 3-6 4-4 1h-9l-4-1-11-1-5 1h-12l-5 1-3-1h-30l-2 1h-10l-6-1-3 1-8-3-3-2 1-9 1-2v-11l-1-2v-11l-1-7v-13l2-9-2-3v-6l2-2-1-5-1-2v-7l2-8-2-4 2-12v-8l-2-5 3-4-1-12v-7l-3-4 1-7 2-3-1-13v-14l-1-4 2-10-2-5 1-22v-7l1-5-1-4v-9l4-4 2-1z" fill="#491A20"/>
<path transform="translate(1639,1547)" d="m0 0 8 1 2 1 7-1 21 1h12l9-2 2 1h14l5 1 4-2h13l2 3 2 10-1 6 3 10v13l-7 4h-25l-3 1-5-1-7 1-4-2-9 1-5 3-3 3 1 4 1 2v9l-1 3 1 2-1 13-1 5 3 4 1 9 5 4h17l7 1 10-1 6 1 2-1 10 1 5 5-2 14v19l-4 6-2 1-8-1h-9l-2 1h-20l-3-2-11 1-5 3 1 14-1 4v7l3 7-1 8-2 3v20l10 4h28l3 1 3-1h17l4 5 1 10-1 4 3 4v6l-3 5 2 6-5 4-4 1h-9l-5-1-11-1-5 1h-11l-5 1-3-1h-31l-2 1h-10l-5-1-3 1-9-3-2-2v-7l2-5v-9l-1-2v-12l-1-2v-19l2-8-3-4 1-6 2-1-3-9 2-10 1-2-3-6 2-6 1-12-2-4 1-4 1-1-1-12 1-6-2-5-1-4 2-6 1-5-2-7 1-3v-13l-1-1 1-15-1-2v-10l1-11v-10l1-4-1-6-1-7 6-5z" fill="#481A1F"/>
<path transform="translate(1125,1547)" d="m0 0 8 1 2 1 7-1 16 1h17l9-2 8 1h9l5 1 3-2h13l3 7 1 7-1 5 3 9v14l-4 3-9 1h-18l-4 1-5-1-7 1-3-2-10 1-6 4-2 4 3 5v8l-2 2 2 4-1 11-2 5 3 5 1 9 5 4h17l7 1 11-1 5 1 8-1 5 2 4 4-2 13v19l-4 8-9-1h-10l-2 1h-20l-3-2-11 1-5 3 1 14v8l-1 3 3 7-1 9-2 3v18l10 5h21l5-1 2 1h24l3 5 1 11-1 4 3 3v7l-3 5 3 4-6 5-4 1h-9l-4-1-11-1-5 1h-12l-5 1-3-1h-30l-3 1h-10l-4-1-4 1-8-3-3-2v-6l3-9-2-9v-11l-1-6v-13l2-10-2-3v-6l2-2-1-5-1-2 1-12 1-3-2-4 1-6 1-7v-7l-2-6 3-3-1-12v-7l-3-5 3-9 1-2-2-6 1-17-2-5 2-11-2-5 1-13v-15l1-6-1-13 3-4 3-1z" fill="#481A20"/>
<path transform="translate(1056,1483)" d="m0 0h250l4 2h-2v2l21 2 12 3 1 3-3 1-54 1 3 1 43 2 5 1v2l-3 3 23 1 10 1-2 3 86 2 1 2-7 1-834-2 3-2 11-1h9v-2h-8l1-2 19-3 1-1-2-2 1-1 13-1 3-1 1-2h-16v-3h54v-3h-47l1-2 61-1-1-2h55l57-1h177z" fill="#842322"/>
<path transform="translate(1536,964)" d="m0 0h6v28l-7 3-13 8-23 13-22 13-8 6 19-8 3-1v2l-10 6-14 6-10 3-2 4-14 8-41 16-36 12-25 7-25 6-3 1-1 2-7 1h-27l-16 3-22 1-3-1 1 6-3-2-1-3-15-1-5-1-16-31 1-4 13-4 41-11 25-7 39-12 25-8 43-14 75-25 19-5 40-12z" fill="#2A3E8B"/>
<path transform="translate(656,1151)" d="m0 0 16 8 5 2-1-3 9 2 15 5 15 7 18 5 24 6 4 2v2l-14-2-8-2v2l9 3 27 8 12 2 1 1 9 1-6 8-10 13-5 8-4 8-5 4-7-1 6 2-6 8-8 7-20 12-16 9-23 10-11 3h-18l-15-5-5-2 14 7 9 2h15l14-4 21-10 7-4 2 1-13 8-16 9-14 4-5 1h-9l-15-4-12-6-12-9-10-10-9-14-6-15-2-13 1-16 4-11 6-10 19-19 11-9 7-7z" fill="#2A3D8B"/>
<path transform="translate(1542,1020)" d="m0 0h2l-1 15-4 28-4 18-19 10-22 13-10 7 14-5 6-3 2 1-9 6-14 6-8 3h-3l-2 4-13 8-38 15-36 12-27 8-29 7h-2v2l-10 2h-26l-17 3h-18v-2l20-2 3-1-1-1-25 1-11-21-3-7-8-13-5-10 31-1-1 3h15l31-4 26-5 20-10 8-2h6l-3 3-14 6-1 1 9-1 11-4 21-14 9-4 9-2-4 5 15-3 6-4v-1h-5v-2l32-13 15-8 16-10 16-8 22-5 16-8 9-6-2-1 1-3z" fill="#2A3E8C"/>
<path transform="translate(458,1547)" d="m0 0 4 2 1 6-1 6 1 8 2 4-3 5 1 6v13l2 7v7l-2 2-1 34v13l1 6v7l1 5-1 7 1 9 1 2-1 13-1 19 1 3-1 5 1 2v8l2 9-3 9 8 6h10l7-1 4 1h9l4-1h9l6 4 2 5v20l-2 3 1 9-5 3h-16l-3 1h-32l-3-1h-40l-7 1-4-4-3-16 1-5 2-3v-11l-2-4-1-13 3-24-1-9 1-4v-10l-3-14 1-7 1-4v-13l-1-2-1-14 1-6 1-10v-12l-1-6 1-4-1-7-1-6 3-5-1-7-1-3v-7l-1-2 1-4-1-5 2-4 1-10-2-7 7-4h23z" fill="#491A20"/>
<path transform="translate(1026,1547)" d="m0 0 3 1 2 5-2 7 1 10h2l-1 5-1 2v7l1 4-1 8 3 14-3 4-1 46 1 7 1 12-1 5 1 9 1 2v9l-2 20 1 8-1 3 2 7 1 14-2 3v5l6 5 2 1h10l7-1 3 1h10l4-1h8l7 5 1 3v22l-1 1v10l-5 3h-16l-3 1h-31l-4-1h-39l-7 1-4-4-2-13-1-7 3-4v-11l-2-3-1-16 3-23-1-9 1-4v-8l-3-14 1-9 1-4v-11l-1-2-1-16 1-4 1-10v-12l-1-7 1-3-2-6 1-4-1-4 3-6-1-6-1-4-1-14 1-6 1-2v-11l-1-6 6-3h24z" fill="#47191F"/>
<path transform="translate(351,1547)" d="m0 0h11l7 1 6 6v10l2 2 1 12-3 6 1 12 2 7-1 5-2 2v13l2 4-1 4 1 8-1 17 1 6-2 14 2 6v8l-2 3v11l3 6-1 5-1 7 2 6-2 2 1 4v11l-1 18 1 9-1 2-1 16v13l2 3v3l-9 5h-9l-1-1h-8l-6 1-1-1-15 1-5-6 1-6-3-13v-26l3-10-1-8 1-4-1-6-1-7v-4l2-2v-6l-1-7 1-3-2-2 1-4 1-3-2-6 1-9-1-7 1-8 1-5v-8l-2-4-1-11v-11l2-5-1-5-1-2v-12l3-7-3-5 1-11 1-2 1-10-3-4v-11l9-6 13 1z" fill="#481A20"/>
<path transform="translate(1519,1120)" d="m0 0h4l-3 10-13 30-11 21-5 8-21 8-5 5-17 9-43 16-30 10-25 7-25 6-5 3h-6l-1-5 20-4 34-10 4-2-57 11-5-1-2-6h-2l1 8-13 3h-3l-13-27v-3l3 2-5-10-2-6 26-2 35-6 13-4 7-5 13-4h7l-4 3-13 6 4 1 15-5 21-14 9-4 9-2-3 4 10-1 10-5 1-1-6-1 4-3 28-11 15-8 14-9 15-8z" fill="#2A3E8C"/>
<path transform="translate(413,1174)" d="m0 0 3 1 4 7 4-5h2l-1 5-1 6 48 79 13 21 10 2v3l-5 1 4 9v2l-15-1v3h4v3l-16-2v3l14 1-1 2-12-1-7-1v2l-13-1-36-3-46-5-8-3-5-4-2-8 4-13 15-39 12-30 5-1 4-5 6-1-3 12-1 5 9-16z" fill="#491A20"/>
<path transform="translate(1687,767)" d="m0 0 5 1 11 6 6 1 14 8 19 9 23 13 26 14 5 4 3 5v8l-6 9-11 11-7 8-11 11-7 8-19 19-5-1-6 3-5-2 6-8 5-6-6 4-11 9-16 16-3 4h-2l-2-10-5 4h-2l1-4 4-4v-8l-17-107-1-5-8-5v-2l7 1-1-3 1-2v-7l13 6 1-2-3-1 1-3 11 6 4 2v-3l-5-2-7-4z" fill="#481A20"/>
<path transform="translate(792,182)" d="m0 0h7l10 5 22 14 25 16 18 12-1 4 5 6-1 5-6-2-8-5-1 1 11 9 22 15 6 4v2l-10 3v2l5 2v2l-5-1-3-2-6 1-42 15-40 15-25 9-5 10h-2l-1-6h-3l-7 2 1-7 3-8h-3l-1 3h-2l1-7 3-9-3 3-3 10h-2l1-6 3-9v-8l6-19 5-19 15-47 3-8 5-5z" fill="#491A20"/>
<path transform="translate(1012,146)" d="m0 0h9l8 6 9 11 12 13 9 11 12 14 9 11v4l2 7-1 6-4-2-9-9 1 4 6 8 7 9 9 11 5 6v2l-9 1v2l1 5-7-6h-11l-103 6-7 1-6 8-1-3 2-5h-13l7-11 1-4h-2l-1 3h-3l2-5 6-9-3 1-6 9-1-3 8-11 1-6 8-11 11-18 16-23 18-27 6-5z" fill="#481A20"/>
<path transform="translate(375,789)" d="m0 0h2v11l5-3 3 1-8 8-2 46-2 63v10l7 6v2l-7-1-2 10-4-2-8-6-2 2 3 1v3l-5-2-8-7v2l8 7v2l-4-2-11-9-5-1-11-10-16-12-11-10-10-8-14-12-11-9-4-6-1-5 3-7 5-5 18-13 40-28 8-5h3v2l5-2h6l1 4-12 10 7-3 15-9 15-10z" fill="#491B21"/>
<path transform="translate(593,281)" d="m0 0 10 1 40 11 37 11 2 5 6 5v3h-7l-11-2 9 4 13 5 23 7 2 2-7 6-1 2 6 1v2l-11-1-18 14-19 14-21 16-19 14-17 13-2 12-2-1-1-6h-2v2l-6 3-3 1-1-15-2 4h-3l1-16h-3v14h-2l-1-17h-1v-102l4-8 4-3z" fill="#47191F"/>
<path transform="translate(396,602)" d="m0 0 2 1v2h9l3 2v3l-15 6 10-1 16-4 19-6h3l-2 9-1 2 8-1-2 3-8 2-2 9-23 65-13 38 2 5 2 6-6-3-4 9-2 2-8-12-1 2v3l-4-2-6-10v3l5 8v2l-3-1-8-13-4-2-11-17-10-14-14-22-10-15-9-14-1-9 4-7 8-4 47-16z" fill="#481A20"/>
<path transform="translate(1687,962)" d="m0 0 4 2 7 7 2 1-2-6 4 2 8 8 2 1-3-5-6-6 1-2 12 12 5 2 17 17 8 7 12 12 7 8 24 24 3 6v7l-4 6-10 7-32 18-33 18h-2l-2-2-9 1-2-4 14-9-5 1-18 8-22 12-1-3 2-9-6 3h-2v-3l8-5 9-67 7-51-6-7v-2l6 2 2-5z" fill="#48191F"/>
<path transform="translate(514,1341)" d="m0 0 8 6 2 1v-6l3-1v10l5 5 15 14 8 7 10 9 8 7 11 10 8 7 10 9 8 7 5 4h12v2l-5 3 2 1 3 5 2 3-6 2-9 1v2h6l-1 3-15 3 3 1 11-2-1 3-16 3v2l-24 5-28 6-39 7-8 1-9-2-4-5-1-2v-18l3-41 3-31 4-1 3-7 4-1 1 4v14l2-7 2-9 3-30z" fill="#481A1F"/>
<path transform="translate(367,984)" d="m0 0 2 3 1 8h2l2-4 3-1-2 5-2 3 1 9 9 36 19 72 10 5-1 2-7-1 2 10v2l-15-5 3 3v3l-9-3-4-2h-3l12 6v2l-5-1-12-5-2 1-19-8-19-7-27-12-26-11-5-4-2-3v-10l6-9 14-18 10-13 13-16 8-10 3-4h2v2l9-5 4 1-2 5-7 10 4-2 6-7 5-5 11-13 6-8z" fill="#481A20"/>
<path transform="translate(1234,175)" d="m0 0h8l6 4 3 4 11 25 11 24 10 24-1 9-1 7h-4l-7-13 1 6 5 15 9 22v4l-10-2 1 7h-2l-4-8-64-16-41-10-12-2-7 5h-2l2-5 1-2-4-1-7-2 4-5 5-4h2v-3l-5 2v-4l9-7h2v-3l-6 4-7 5 1-4 12-9 1-4 13-10 12-11 28-22 11-9 13-10z" fill="#481A20"/>
<path transform="translate(1552,1321)" d="m0 0h2l2 9v5h3v-5l3 1 2 15 2-1-2-14h2l2 8 2 10h2l12 61 6 31v12l-3 5-4 3-3 1h-13l-52-4-21-2-2-1v-4l-6-1-3-3v-3l17-1-14-3-35-4 2-4 4-5-6-2v-2l11-1 10-11 7-8 9-10 7-8 10-11 7-8 9-10 7-8 11-12 1-7v-6l5 4 5-3z" fill="#481A20"/>
<path transform="translate(1646,1152)" d="m0 0 3 1 5 10 3 1-2-5 3-1 6 12v2h3l-6-12 1-2 10 16 4 4 8 16 12 21 15 30 8 14 1 3v11l-8 7-21 5-60 13h-4v-3l-9-1-3-4 6-3 9-2h-15l-30 6-3-1 4-9h-7v-2l10-4 14-30 16-35 17-36 2-5-1-5-2-4 1-3 3 2v2h2l1-3h2z" fill="#481A20"/>
<path transform="translate(1604,413)" d="m0 0 10 1 6 4 3 7-1 11-8 46-6 30h-3l-5 8-3 1-1-1v-17l-6 21-5 25-2 2-8-7-1 6h-2v-10l-7-8-15-16-9-10-24-26-22-24-3-3-12-1 3-3 3-2-6-8v-1l14-2 1-2-5-1v-2l16-1-1-2-14 1v-2l2-1 14-1 1-2 4-1 22-2 27-3z" fill="#48191F"/>
<path transform="translate(1436,267)" d="m0 0h11l5 4 3 7 7 54 3 31-4-1-1 8-2 3h-3l-2-5-1-12h-2l1 25 2 19v6l-5-2-4-2-1 6h-2l-2-9-29-17-73-43-5 1-7 1 4-5-2-1v-3l-5-2-1-3 12-5 1-2-5 1-1-3 13-5h2l-2-2-10 4h-2v-2l15-6 4-4 20-8 25-11 31-12z" fill="#481A20"/>
<path transform="translate(1615,582)" d="m0 0 11 2 8 2v-2l8 1 46 9 28 6 15 3 6 4 3 3 1 8-3 9-24 48-10 19-4 4-4 1-3 3h-6l3-8 3-9-8 12-8 14-9 17h-2l-4-9-4 5h-2l1-5 2-6-14-28-13-28-23-47-1-3-10-3v-3h6l-4-10v-2l15 3v-3l-4-1v-2l9 1 8 2-1-2-13-3z" fill="#481A20"/>
<path transform="translate(458,433)" d="m0 0h59l1 3 8 3 1 4-17 2 2 1 12 1 36 1-2 4-4 7h7v2l-10 1-13 18-14 19-15 20-10 14-13 18-5 7 2 11-4-2-3-3v3h-3l-2 5-2 1-4-12v-2h-3l1 4-3 1-4-14-1-1 2 14h-2l-5-17h-2l-4-13-9-29-9-31-6-19v-11l3-5 5-3 4-1z" fill="#481A1F"/>
<path transform="translate(706,1098)" d="m0 0 11 2 5 1-6 8-1 2 8-9 8 1 16 5v2h-7l-9-2h-5l12 5 20 6 14 2v2l18 1 25 2h17l20 2-4 7-13 16-12 16-14 18-13-3-17-2-12-2h-9l-2 1-36-12-20-8-27-12-8-4 6-7 29-31z" fill="#2B3F8C"/>
<path transform="translate(1546,989)" d="m0 0h2l-1 17-2 13-7 5-1 2 3 1-14 9-12 6-22 5-16 8-18 11-15 8-27 11h-3v2l6-1-2 4-8 4-5 1h-7l1-3h-2l-11 4-14 9-11 7-12 4h-7l4-4 14-6-9 1-11 4-10 6-17 4-33 5-10 1h-12l-3-1v-2h-30l-8-14-3-5v-3l19 1 3 5v-5l25-1 16-3h34l1-3 19-5 24-6 35-11 37-14 19-8 10-6 4-4 20-8 9-5 3-1h-3l-14 6-7 2 4-4 21-13 27-15 16-10 3-2h3l1 7z" fill="#FDFDFD"/>
<path transform="translate(613,1192)" d="m0 0 4 1 6 4-6 12-2 10 1 14 4 12 1 1-2-18-1-15 4-12 1-2 4 2 19 10 39 19 31 13 31 10 6 2-3 3-21 13-16 8-15 7-11 4-5 1h-18l-15-5-5-2 14 7 9 2h15l14-4 21-10 7-4 2 1-13 8-16 9-14 4-5 1h-9l-15-4-12-6-12-9-10-10-9-14-6-15-2-13 1-16 4-11z" fill="#2B3F8C"/>
<path transform="translate(1533,1081)" d="m0 0 2 1-7 25-4 12-5 2-16 4-17 9-17 11-17 8-23 9 5 1-5 5-7 3-10 1v-3h-3l-10 4-16 10-7 5-15 5-5-1 2-3 14-6-9 1-11 4-7 5-16 4-30 5-9 1h-17l-8-16-4-7 24-3 4-1h26l10-1v-2l14-4 28-7 41-13 37-14 14-6 11-7 2-3 21-8 9-5 2-2-16 7-5 1 5-5 18-11 25-14z" fill="#FDFDFD"/>
<path transform="translate(1468,1220)" d="m0 0 2 1-10 13-8 10-11 13-12 13-5 6-7 4-11 9-16 13-19 14-16 11-3-4-9-24-6-11-3-4h-2l3 9 14 30 2 4v3l-5 2-5-8-3-2 2 11v4h-2l-14-32-10-19h-3l-4-9 12-2 5 10-1-11 17-4 10-6 10-4 4-1h7l-3 3-14 6v1l8-1 13-5 18-12 8-4 9-3 3 1-4 4 14-3 6-4h2v-2l-6 1 1-3 28-11z" fill="#2A3E8C"/>
<path transform="translate(1156,960)" d="m0 0 4 2 8 5 7 4 4-1 3-2 7 1 5 4 1 2v10l-4 8-1 1-7 1-4 6 1 7 6 10 1 7v21l1 4v11h5l2 3v3l2 1-9 3-13 2h-27l-13-3 1-7 2-1h6l-2-10-3-5-1-4v-14l4-13 4-7-1-5-5-4v-5l-4-1-7-8v-9l7-8 4-2 4 1 5 2 4-3 3-1-3-3h4z" fill="#48191F"/>
<path transform="translate(1488,1189)" d="m0 0h2l-2 5-10 16-7 9-17 9-28 11-1 2 6-1v2l-8 5-8 2h-6l1-4-14 5-23 15-14 5h-5v-3l16-7-10 1-10 4-10 6-16 4 1 4v8l-3-4-3-5v-3l-8 2h-5l-11-21-2-6 1-1h13l-2-6v-7h2l3 6 9-1 50-10 4 1-12 5-32 9-10 2h-6l1 5 8-2 6-3 34-8 35-11 43-16 16-7 12-7 4-4z" fill="#FEFEFE"/>
<path transform="translate(1209,1199)" d="m0 0h15l12 2v1l-22-1-45 7-63 9-25 2-50 1-6 1-2 5-9 9-8 5-13 16-29 38-10 14-15 20-11 16-10 13-7 6-14 4-7 1h-25l-19-3-16-5-2-5 9 2 19 4 15 2h20l15-3 8-4 12-15 14-19 13-18 14-20 12-17 15-22 11-16 8-10 6-5 7-3 6-1 49-1 45-2 51-4z" fill="#4F1A1F"/>
<path transform="translate(727,1098)" d="m0 0 7 1 9 3v-2h8l32 5 14 3 19 2h13l-20-3v-2h9l25 4-1 2 21 3v2h-2l-1 4h-2l-2 4-3 4h-12l-9-1h-17l-36-3-7-1v-2h-9l-15-4-18-6-6-3v-1h7l16 3v-2l-9-2-14-4z" fill="#FEFEFE"/>
<path transform="translate(510,970)" d="m0 0 9 6 15 11 23 16 21 13 10 6 6 6h8l47-8 8 1 6 3 7 9 7 12 4 5 13 9 8 4 15 4 3 4v9l-6 9-2 2 9 4 4 1-2 5-10-1-8-2 3-5 8-11 1-8-2-4-5-1-4 1-12-4-11-7-10-9-6-10-7-11-4-2h-12l-41 7h-20l-18-3-13-5-10-7 2-1 10 5 8 1h2l-14-10-16-13-11-8-10-15-3-5z" fill="#FEFEFE"/>
<path transform="translate(1360,506)" d="m0 0 4 2 8 8 8 7 13 13 9 11 10 11 13 17 14 18 16 24 13 20 15 28 8 16 13 29 12 36 12 48 4 22-1 3-4-9-7-28-13-42-11-29-18-40-15-29-17-28-11-17-14-19-10-14-12-14-9-11-11-12-7-8-12-12z" fill="#4E1A1F"/>
<path transform="translate(663,1143)" d="m0 0 6 1 19 9 29 12 36 12 4 1v-1h10l18 3 11 1 12 3 1 2h-2l-1 4h-2l-2 5h-2l-1 4-2 1h-9l-7-2-17-4-21-7-4-2v-2l13 2 9 2-1-2-22-6-20-5-16-7-13-5-12-3 1 3-6-2-15-8 1-4z" fill="#FEFEFE"/>
<path transform="translate(1169,611)" d="m0 0 5 5 7 10 7 14 5 15 3 16 1 10v15l-2 18-5 20-6 15-7 11-9 10-9 8-12 7-13 5-15 3-11 1 4 7 7 14 4 16 6 6h-6l-5-4-2-4-4-17-8-16-4-5v-2l23-3 16-5 14-7 10-8 7-7 9-14 6-15 5-19 2-16v-19l-3-21-5-16-8-16-6-9z" fill="#FEFEFE"/>
<path transform="translate(623,1199)" d="m0 0 4 2 19 10 39 19 31 13 31 10 6 2-3 3-10-1-25-6-12-5-14-6-15-4 1 3-6-2-17-9-13-10-13-11-4-3z" fill="#FEFEFE"/>
<path transform="translate(1369,1231)" d="m0 0 4 1-12 5-32 9-10 2h-6l5 13 4 10 3 8v8l-3-4-3-5v-3l-8 2h-5l-11-21-2-6 1-1h13l-2-6v-7h2l3 6 9-1z" fill="#C6201D"/>
<path transform="translate(1385,748)" d="m0 0h1l-1 9-6 9-13 10-17 11-21 11-26 11-31 10-30 7-35 6-7 1h-8v-1l33-6 40-10 36-12 26-11 19-10 8-5 5-5 6-4 10-7 5-1 4-5z" fill="#FCFAFA"/>
<path transform="translate(839,1185)" d="m0 0 12 6 8 8 5 9 2 8v17l-4 18-7 17-12 22-9 19-9 27-3 19h-1l-1-5v-8l4-20 8-22 13-26 9-17 5-15 2-11v-16l-4-11-6-8-10-8-2-1z" fill="#581B1F"/>
<path transform="translate(1541,878)" d="m0 0 2 3 3 19 1 17 1 57v9h-2l-2 15-3 4 1-40-18 2-9 2-4-1 13-5 9-2h10l-2-64z" fill="#58221E"/>
<path transform="translate(654,1021)" d="m0 0 6 1 6 5 11 18 4 5 13 9 8 4 15 4 3 4v9l-6 9-2 2 9 4 4 1-2 5-10-1-8-2 3-5 8-11 1-8-2-4-5-1-4 1-12-4-11-7-10-9-6-10-7-11-4-6z" fill="#FDFDFB"/>
<path transform="translate(848,1215)" d="m0 0 2 3v15l-5 19-8 16-9 19-10 25-5 17-2 19 2 12 5 8 6 5 11 5 17 4v1l-11-1-15-4-8-4-7-8-3-7-1-5v-16l4-18 5-15 8-18 8-16 8-15 5-13 3-15z" fill="#FDD006"/>
<path transform="translate(1359,1077)" d="m0 0 3 1-11 5-33 9-16 3-24 1-1-2 10-3 63-12z" fill="#FEFEFE"/>
<path transform="translate(1371,1154)" d="m0 0 4 1-8 4-41 11-11 2h-23l3-3 67-13z" fill="#FEFEFE"/>
<path transform="translate(594,780)" d="m0 0h17l18 2 16 5 8 5 4 2-3 3h-7l-11-7-17-5-19-2h-24v-1z" fill="#FEFEFE"/>
<path transform="translate(1369,1231)" d="m0 0 4 1-12 5-32 9-17 3-2-6z" fill="#FEFEFE"/>
<path transform="translate(1229,1249)" d="m0 0v3l-11 14-13 15-16 17-9 10-11 12-2-1 12-13-5 4-10 9-4 2 6-7 16-15 8-8 8-7 14-14 11-14z" fill="#F7F1F1"/>
<path transform="translate(727,1271)" d="m0 0m-2 1 4 2-16 8-20 9-11 3h-15l-11-3-14-7-1-2 6 2 13 5 4 1h18l13-4 16-7z" fill="#451920"/>
<path transform="translate(654,1021)" d="m0 0 6 1 6 5 11 18 4 5 13 9 7 3-4 1-16-8-11-9-6-11-8-12z" fill="#FAC709"/>
<path transform="translate(1298,1253)" d="m0 0 12 1 5 13 3 5-1 4-11 1-1-4 3 1-6-14-4-6z" fill="#FDFDFC"/>
<path transform="translate(1332,1283)" d="m0 0 4 2 7 11 8 22 2 5v5l-3-1-13-27-6-14z" fill="#AE191F"/>
<path transform="translate(852,1224)" d="m0 0h1v12l-4 15-6 14-10 19-7 14-3-1 11-25 7-13h2l2-5 5-15z" fill="#661D1F"/>
<path transform="translate(965,1289)" d="m0 0 1 3-10 13-14 19-14 20-6 8-5 2 2-4 16-21 8-11 12-17 8-11z" fill="#611D1F"/>
<path transform="translate(929,424)" d="m0 0 3 1-21 11-11 8-10 9-9 13-5 13-2 12h-1v-13l4-12 7-11 12-12 15-10 16-8z" fill="#FDD005"/>
<path transform="translate(626,1193)" d="m0 0v3l-5 10-2 7 1 15 2 18-1 3-5-12-2-11 1-13 4-10 6-9z" fill="#46191F"/>
<path transform="translate(941,630)" d="m0 0 1 3-6 20-4 15-1 3-23-1-12-1v-1h22l10 1 4-17 8-20z" fill="#8A5054"/>
<path transform="translate(1294,1249)" d="m0 0h13l2 5h-10l6 10 3 10-4-1-9-17-2-6z" fill="#D54029"/>
<path transform="translate(1475,962)" d="m0 0h7l5 1v2l-33 10-6 1 3-3 13-6 1-2z" fill="#363A7E"/>
<path transform="translate(525,994)" d="m0 0 6 4 15 12 16 12 3 3-6-1-10-8-9-4-9-9-6-7z" fill="#2D3D88"/>
<path transform="translate(673,1048)" d="m0 0 8 6 16 8 13 3 2 3-2 2-8-1-10-4-13-9-6-6z" fill="#FEFEFE"/>
<path transform="translate(727,1057)" d="m0 0 4 2 5 8 1 5v7l-3 9-5 8-11 13-5 4 2-4 10-12 6-10 2-5v-14l-4-8z" fill="#48191F"/>
<path transform="translate(633,1045)" d="m0 0h5l-4 2-25 5-8 1h-18l-20-3-4-2 11 1 8 1h26l24-4z" fill="#A83035"/>
<path transform="translate(706,1098)" d="m0 0 11 2 5 1-5 7-9-2-7-2z" fill="#2A3E8C"/>
<path transform="translate(1209,1199)" d="m0 0h15l12 2v1l-22-1-32 5-3-1-2-2z" fill="#631D1F"/>
<path transform="translate(1249,1143)" d="m0 0h3l8 8 3 5-2 8-3-3-7-12z" fill="#A81A1F"/>
<path transform="translate(1243,1097)" d="m0 0h20v2l-7 2h-21l-2-3z" fill="#FEFEFE"/>
<path transform="translate(939,1323)" d="m0 0h2l-2 5-11 16-6 8-5 2 2-4 16-21z" fill="#5B1C1F"/>
<path transform="translate(1270,1173)" d="m0 0h6l2 2-4 2-6 1h-16l-1-3 2-1z" fill="#FEFEFE"/>
<path transform="translate(495,1842)" d="m0 0h69v1l-51 1-2 1h-7v-1l-9-1z" fill="#DD595E"/>
<path transform="translate(650,1164)" d="m0 0 2 1-10 9-13 10-8 7v-3l11-11z" fill="#46191F"/>
<path transform="translate(1381,1319)" d="m0 0 2 1-12 10-11 8-3-3 5-4z" fill="#2A3E8C"/>
<path transform="translate(1528,959)" d="m0 0h15l-1 2-23 4-8 1 4-3z" fill="#473670"/>
<path transform="translate(1254,1180)" d="m0 0h5l5 10 3 7v3l-4-2-8-16z" fill="#FEFEFE"/>
<path transform="translate(837,1271)" d="m0 0 1 3-12 24-3-1 7-16h2l2-6z" fill="#601C1F"/>
<path transform="translate(1352,777)" d="m0 0 2 1-13 8-17 9-4-1 1-2 18-8z" fill="#652024"/>
<path transform="translate(711,1066)" d="m0 0 6 1 3 4v9l-6 9-7 8v-3l8-10 2-5-1-8z" fill="#FBCB05"/>
<path transform="translate(1391,989)" d="m0 0 3 1-19 7-10 3-4-1 13-6z" fill="#5C305E"/>
<path transform="translate(1452,981)" d="m0 0h5l-2 2-15 5-13 1 1-2z" fill="#583162"/>
<path transform="translate(848,1215)" d="m0 0 2 3v15l-5 19-2 4h-2l1-5 5-16 1-7z" fill="#FDD005"/>
<path transform="translate(1338,1322)" d="m0 0 4 2 4 6-1 4-4 2-3-6z" fill="#B9191F"/>
<path transform="translate(613,1192)" d="m0 0 4 1 6 4-3 5-9-5 1-4z" fill="#FCFAFA"/>
<path transform="translate(809,680)" d="m0 0h4v2l-24 6-8 3-3-1 7-4z" fill="#6F292D"/>
<path transform="translate(1294,1249)" d="m0 0h13l2 5-11-1-5-1z" fill="#2D3C88"/>
<path transform="translate(843,1260)" d="m0 0 1 3-5 9-3 1-4 8-1-3 9-17z" fill="#831C1F"/>
<path transform="translate(1303,1244)" d="m0 0h3l1 5-15 1-1-3z" fill="#FEFEFE"/>
<path transform="translate(658,1499)" d="m0 0 3 1-1 1 3 2-6 1-11-1-2-2 1-1z" fill="#B67575"/>
<path transform="translate(821,1375)" d="m0 0 12 2 15 4 4 2-11-1-15-4-5-2z" fill="#FDFAEA"/>
<path transform="translate(823,1333)" d="m0 0h1l-1 17-1 5h-1l-1-5v-8l1-7z" fill="#601D1F"/>
<path transform="translate(1495,1178)" d="m0 0 2 1-4 6-10 4-3-1z" fill="#FEFEFE"/>
<path transform="translate(791,1094)" d="m0 0h6l3 5-16-2-1-2z" fill="#FEFEFE"/>
<path transform="translate(379,1858)" d="m0 0 3 1 31 1v2l-37-1z" fill="#CF353A"/>
<path transform="translate(812,1340)" d="m0 0h1l2 18 3 7-3 1-4-10z" fill="#6C1D1F"/>
<path transform="translate(804,1170)" d="m0 0 7 1 3 3v2l-17-3v-1l7-1z" fill="#FEFEFE"/>
<path transform="translate(1339,1345)" d="m0 0h3l-1 5-4 3h-3l-1-5z" fill="#D43B3C"/>
<path transform="translate(711,1180)" d="m0 0 9 1 17 5v1l-10-1-16-5z" fill="#FEFEFE"/>
<path transform="translate(941,630)" d="m0 0 1 3-5 17-4 1 3-10z" fill="#7D393D"/>
<path transform="translate(709,1257)" d="m0 0 9 1 15 5v1l-9-1-15-5z" fill="#FEFEFE"/>
<path transform="translate(1238,1133)" d="m0 0 3 4 4 9-1 4-5-8z" fill="#A01C1F"/>
<path transform="translate(1240,1409)" d="m0 0 2 1 1 2-16 7-3-1z" fill="#6B1E1F"/>
<path transform="translate(726,717)" d="m0 0 2 1-15 11-5 3-2-1 15-11z" fill="#985B5E"/>
<path transform="translate(939,1323)" d="m0 0h2l-2 5-6 9h-3l2-4z" fill="#5E1C1F"/>
<path transform="translate(1225,1258)" d="m0 0 1 2-7 9-4 1 2-4 4-5z" fill="#5C1B1F"/>
<path transform="translate(1228,1095)" d="m0 0 4 2 3 5 1 7-3-2-5-10z" fill="#AE1D1E"/>
<path transform="translate(1582,909)" d="m0 0 2 1v24h-1l-1-11z" fill="#8C272B"/>
<path transform="translate(653,1039)" d="m0 0 5 5 5 10-4-1-6-12z" fill="#803437"/>
<path transform="translate(849,1237)" d="m0 0h2l-3 10-3 8-3 4 1-5 5-16z" fill="#BC1A1F"/>
<path transform="translate(1333,787)" d="m0 0m-2 1h2l-1 3-8 4-4-1 1-2z" fill="#69252B"/>
<path transform="translate(1148,1309)" d="m0 0 2 1-16 16v-3z" fill="#8A3B3F"/>
<path transform="translate(1023,1222)" d="m0 0 2 1-7 8-5 4 2-5 5-6z" fill="#A11A1F"/>
<path transform="translate(965,1289)" d="m0 0 1 3-6 8h-3l2-5 4-5z" fill="#5E1C1F"/>
<path transform="translate(832,675)" d="m0 0h10l-4 2-7 2h-5l1-3z" fill="#5D1A1F"/>
<path transform="translate(1348,1340)" d="m0 0h3v4l-3 2h-4v-4z" fill="#C2181F"/>
<path transform="translate(911,465)" d="m0 0 2 1-7 8-4 4v-3l7-8z" fill="#6C1E1F"/>
<path transform="translate(1406,1143)" d="m0 0h2v2l-12 5-3-1z" fill="#FEFEFE"/>
<path transform="translate(1294,1253)" d="m0 0h3l5 12-1 2-7-12z" fill="#FEFEFE"/>
<path transform="translate(956,1300)" d="m0 0 3 1-6 8-2-2z" fill="#651D1F"/>
<path transform="translate(1149,245)" d="m0 0h2v2l-10 8-1-3z" fill="#852327"/>
<path transform="translate(877,669)" d="m0 0h8v1h-8z" fill="#FEFEFE"/>
<path transform="translate(866,670)" d="m0 0h6v1h-6z" fill="#FEFEFE"/>
<path transform="translate(638,1044)" d="m0 0 4 1z" fill="#C85457"/>
<path transform="translate(1581,901)" d="m0 0 1 4z" fill="#DC5156"/>
<path transform="translate(704,732)" d="m0 0 2 1h-3z" fill="#D38D8E"/>
<path transform="translate(556,1047)" d="m0 0 3 1z" fill="#E06469"/>
<path transform="translate(644,1043)" d="m0 0 3 1z" fill="#B61B1F"/>
<path transform="translate(553,1046)" d="m0 0 2 1z" fill="#D1181F"/>
<path transform="translate(729,715)" d="m0 0 2 1z" fill="#A81D1F"/>
<path transform="translate(732,713)" d="m0 0 2 1z" fill="#D1181F"/>
<path transform="translate(734,712)" d="m0 0 2 1z" fill="#E78B8E"/>
<path transform="translate(776,691)" d="m0 0 2 1z" fill="#FEFEFE"/>
<path transform="translate(754,286)" d="m0 0" fill="#E78B8E"/>
<path transform="translate(1313,1384)" d="m0 0" fill="#FEFEFE"/>
<path transform="translate(1132,1326)" d="m0 0" fill="#FEFEFE"/>
<path transform="translate(551,1045)" d="m0 0" fill="#D1181F"/>
<path transform="translate(1718,976)" d="m0 0" fill="#D1181F"/>
<path transform="translate(1704,773)" d="m0 0" fill="#D1181F"/>
<path transform="translate(699,736)" d="m0 0" fill="#FEFEFE"/>
<path transform="translate(700,735)" d="m0 0" fill="#FEFEFE"/>
<path transform="translate(702,734)" d="m0 0" fill="#FEFEFE"/>
<path transform="translate(728,716)" d="m0 0" fill="#46191F"/>
<path transform="translate(731,714)" d="m0 0" fill="#802220"/>
<path transform="translate(736,711)" d="m0 0" fill="#D1181F"/>
<path transform="translate(738,710)" d="m0 0" fill="#D1181F"/>
<path transform="translate(739,709)" d="m0 0" fill="#FEFEFE"/>
<path transform="translate(741,708)" d="m0 0" fill="#D1181F"/>
<path transform="translate(942,628)" d="m0 0" fill="#FEFEFE"/>
</svg>
