<?xml version="1.0" encoding="UTF-8"?>
<svg version="1.1" viewBox="0 0 1713 2048" width="2388" height="2854" xmlns="http://www.w3.org/2000/svg">
<path transform="translate(850)" d="m0 0 32 1 11 2 6 4 4 5 3 9 3 30h10l42 3 9 3 4 5 2 7 1 18-2 11-6 7-10 4-8 1h-45l-3 63-1 29v22l6 9 28 24 13 11 22 18 52-13 36-6 21-2h46l3-9 1 3-1 7 16 1 26 5 26 8 21 9 21 11 15 10 10 8 11 11 10 15 6 13 4 13 2 11v24l-3 15-6 16-6 11-8 11 2 10 1 12-3 16-5 10-7 8-6 4-5 2h-7l1 4h-2v5h-1v-5l-3-1 1-2-12-5-9-9-5-10v-2l-31 14-36 16-34 16 30 2 26 4 23 6 19 7 23 11 13 8 1-2 3 5 12 9 14 12 11 11 9 11 10 13 9 15 7 16 3 12 1 9 5 2 28 16 26 15 29 17 17 10 6 7 1 3v8l-4 10-6 10-8 9-4 2h-10l-16-8-16-9-4 18-19 74-26 93-20 71-16 57-1 2h149v3h-150l3 6 9 14 6 13 4 15 1 7v25l-4 18-5 12-7 13-8 10-6 7-14 11-10 6 1 10 35 5 44 7 20 6 15 8 10 8 8 8 7 10 8 16 5 15 3 18v29l-4 13-6 10-3 4 1 13v14l-4 20-2 8-5 71-3 15-3 9 1 5 12 22 4 1 42-11 5-5 10-21v-4l-10-7-6-5-9-13-5-12-3-13-1-8-3 3-3-1-3-6v-8l3-4 4 1 2 2 6-21 7-13 9-10 11-8h2l-2-7-3-5v-2l9 3 10 5 9 2-1-4v-9l4 4 6 10 4 2 10 1 5 9 9 11 7 14 4 16v6l4-3 4 2 1 2v10l-3 5-6-4-1 10-6 18-7 11-7 8-11 7-4 2-1 5 7 21 5 5 24 15 38 24 17 11 7 4h11l2 2 6-1-14-4v-4h10l12 6-3 2-5 3-4 2-4 4-7 3h-3l-4-10-18-11-17-11-20-12-24-15-6-3 12 37 12 36 10 31v2l-39 1v7l11 48 2 12 4-1 78-4h13l1 3-1 13-5 12-5 6h-2v-13l2-10v-2h-33l-54-1-6-23-13-44-3-3h-32l-2 2-21 87-11 46-1 14-2 2-6-1-10-8-11-7-3-5v-3l10 1 12 6 5 3 2-10 22-90 7-31v-6l-49-1 1-6 13-29 17-39 13-30-9 1-26 7h-9l-6-10-9-17-1-1-7 11-4 5-10 8-11 6h-2l10 26 6 25 4 26 4 29 4 17 7 22 2 11 1 11v17l-2 18-5 21-8 22-8 15-8 10-8 8-14 9-15 6-48 15-22 6-6 1h-22l-24-5-55-7-22-5-18-6-14-7-4 2-10 14-11 13-7 7-15 11-14 7-17 5-25 4-36 8-13 2-13 1h-10l-19-2-28-5-7-1-14 19-12 14-9 9-11 7-8 7-13 13-13 10-13 6-4 1h-19l-12-4-13-7-13-10-12-5-10-8-12-11-7-7-7-8-7-6-8-6-7-7-8-13-12-30-5-19v-26l4-12 7-10 7-7 3-2-23-4-15-5-17-9-12-11-6-7-5-11-4-16-10-22-4-11v-2h-16l-17-4-19-7-12-2-39-15-27-11-13-7-11-9-8-10-6-13-3-13v-10l3-14 7-13 9-10 4-3-2-6-7-11-12-14-9-15-3-6-4 1-18 13-20 14-2 5 18 46 22 56 8 20v3h-46l9 35v11l-5 10-14 22-15 24-14 23h19l9 3-1 3-7 3h-19l-8-4-1-4 11-18 13-20 16-25 8-13 1-3v-7l-5-21-3-15-2-3-35-1h-21l-4 4-6 18-4 13-3 3-9 1h-82l-1 1v13l-2 10-1 3h-2l-3-7-1-5v-13l3-9 73 1 13 1h11l6-19 4-16h-35l9-31 15-50 13-43-8 2-70 13-18 4-2 1-3 6-3 2h-6l-5-4v-6l1-2-15-3-4-5v-5h-9l-9-3-2-4 1-9 6-10 1 2-5 10-1 6 1 4 16 2 5-8 3-2 5 1-1 5-9 6 1 6 3 2 7 1 1-3 5-3 4-1h7l1 2-3 3-10 3v1h12l8 1 89-20 8 1 1-7 10-33v-4l-15-8-10-9-6-7-5-10-4-12-46 23 1 15-3 11-4 8-4 4h-6l-2-3v-9l3-18 1-3-10-2-14-7-8-7-1-7 4-2 10 1 12 5 8 6 4-2 7-7 15-11 25-12 7-6 6-10 6-11 9-10 10-7 13-5 14-2h3l-2-6-8-16-3-12v-13l3-12 6-11 8-9 13-10 33-22 22-14 16-8 7-2-3-2-17-9-12-9-13-12-10-13-9-16-6-15-5-21-1-8v-30l3-20 6-24 5-15h-90l-1-3h93l3-10 11-23 10-17 12-18-1-10-12-65-14-82-10-48-12-53v-4l-10 5-13 8-12 6h-12l-7-5-12-22-3-8v-6l4-6 8-6 28-16 27-15 29-16 42-22 33-17 47-24 28-14 19-10 64-32 1-1-56-9-27-5-15-5-15-8-13-10-9-9-10-14-8-17-3-9v-5h-2l-2 6-7 10-8 8-12 6-7 1 2 5-3 1 1 13-2-3-2-10-2-1 1-5h-9l-12-5-10-9-6-7-6-12-4-14-1-7v-14l3-16 5-12 7-10 8-8 12-6 9-2 13 1 14 7 8 7 7 10 5 11 1 3 4-9 7-13 9-12 13-13 10-7 16-8 15-5 12-2h21l66 11 39 5 9 1h11l21-16 18-13 21-16 14-10 19-14 36-26 14-10 18-13 17-12 18-13 6-7 1-111-59-3-8-4-4-7-1-10v-12l1-11 3-7 5-4 10-2h54v-41l4-6 3-2zm34 20 1 13 3 24 3 1v-9l-3-25-1-4zm70 53-3 6-8 5-3 1-18 1h-37l-1 127-33 1v6h38v-127h50l9-2 8-5 2-5-1-6zm-171 11 2 5 7 3h55v-7zm87 149 3 2 12 4 10 7 12 11 8 7 10 9 8 7 11 10 5 4 4-1-2-4-8-7-12-11-8-7-11-10-8-7-10-7-8-4-11-3zm-17 37-11 4-14 10-38 28-21 16-14 10-16 12-19 14-8 6 4 1 6-3 19-14 16-12 38-28 20-15 19-14 11-8 12-6zm-273 301-3 1 1 16-2 4-14 8-27 14-19 10-29 15-19 10-33 17-19 10-27 14-22 12-30 16-69 39-14 8 1 3 16-8 25-14 21-12 25-14 29-16 27-14 19-10 25-13 19-10 31-16 19-10 31-16 19-10 20-11 4-5v-9l-2-9zm667 8m80 130 1 4 25 14 27 16 25 14 6 6v7l-6 9 4 2 8-8 2-5-1-5-4-5-52-30-24-14-9-5zm-860 25-6 2 4 1 8-2v-1zm-10 3-7 3 3 1 8-3zm-9 4m-2 1m-2 1m-2 1m-2 1-1 2 3-1zm-2 2m-2 1m-2 1-2 3 4-2zm-3 3m-2 1-3 4 4-2 1-2zm-6 6-2 4 3-2zm-4 5m-2 3m795 296 3 2h5l-3-2zm9 2m3 1m-901 449-6 9-7 7-13 8-8 4 7 20 8 20 11-7 25-17 9-6-1-5-13-18-10-14zm-210 69-4 5v2l6-2 2-2v-3zm19 13-8 3-1 2 8-1 5-3zm1465 44v2l7 2h7l-3-3-4-1z" fill="#FEEC00"/>
<path transform="translate(863,1137)" d="m0 0h9l9 2 13 7 19 14 13 8 28 14 12 8 10 9 5 6 6 4 3 1h16l35-7 32-5h17l19 5 33 13 25 12 14 8 13 10 11 10 10 13 1 4-4 29v9l4 2h7l13-4 11-1 68 10 19 4 11 4 8 6 8 9 5 10 4 14 1 7v19l-4 6-16 10-2 3v7l7 12 3 12-1 12-4 15-2 18-4 60-3 12-6 9-6 4-19 7-7 6-4 9-1 5v9l3 12 8 20 6 18 4 20 7 50 5 20 6 18 2 15v12l-3 20-5 17-6 14-7 9-7 6-14 6-56 17-8 2h-13l-18-4-21-3-34-4-23-5-16-6-20-12-7-3h-11l-8 4-8 8-12 17-9 12-9 10-8 7-14 7-28 5-36 8-13 2h-25l-30-5-33-11-10 15-13 18-11 14-9 10-6 5-6 3-10 9-17 17-6 4-8-1-10-7-12-9-11-4-12-11-12-12-7-8-8-6-6-4-7-14-9-24-1-4v-14l6-5 13-4 7-1h11l-1-6v-10l4-13 6-18 1-13-1-3-12-3-41-4-23-2-15-5-10-6-4-6-1-8-7-18-7-14-5-15-7-30-3-2h-6l-15 7-5 1h-13l-14-4-13-5-18-4-33-13-27-11-8-6-4-6-1-6 3-7 11-9 9-7 6-7v-9l-5-15-8-17-10-15-9-11-6-8-6-11 1-4 3-3v-7l-3-1h-8l-3 3-2 7-9 7-18 12-4-5-12-17-10-14 1-5 4-13 2-17 5 2 19 9 20 6 10 2 10 1 4 5 8 24 6 4 4 1 13 22 12 21 12 22 12 25 4 9-2 4-17 10-6 4h-2l1 7 52 15 39 11h7l5-27 14-67v-6h-6l-26 16h-3l-18-35-12-22-10-19-11-20 2-5 3-1 38-2 21-3 17-5 15-8 11-9 9-10 10-16 7-16 3-11 2-12 3 3 9 14 11 14 13 15 16 17 16 15 14 11 14 10 16 9 18 7 14 3h25l17-4 12-5 12-8 13-11 10-10 7-8 9-9-1-5-11-13-9-11-11-11-7-8-6-4-5 2-13 17-9 6-9 3-7 1h-13l-18-8-17-10-7-6-3-5 1-5 9-6 15-8 15-10 22-13 23-12 36-18 18-8-2-7-12-18-8-14-12-14-11-10-15-10-21-10-19-7-18-4-9-1h-15l-13 2-18 5-23 10-16 9-11 9-8 9-8 13-6 15-4 15-2 13-1 29-3-3-7-12-12-13-14-10-21-11-17-5-14-2h-22l-18 3-15 5-17 9-13 10-12 11-8 10-10 19-4 3-5-1-5-6-5-10-6 1-11 7-10 10-5 6-11 6-6 4 2 5 14 20 36 54v2l-6-2-18-7-14-4-12-20-13-24-12-22-7-15 1-5 4-5 20-14 15-10 22-14 11-6h7l4 4 7-1 2-4 15-15 7-6 14-8 15-6 23-5 19-2h46l14 3 18 6h9l8-4 6-7 9-16 11-14 9-9 4-5 12-9 26-10 19-8 15-3 8-1h45l21 4 16 6 6 2 9-6 7-8 8-16 10-26 6-11 7-9 9-8 10-5z" fill="#FCFCFC"/>
<path transform="translate(859,285)" d="m0 0h7l8 3 11 9 17 14 13 11 10 8 13 11 11 9 56 48 11 10 8 7 12 11 10 9 5 7 3 9v21l-10 143-8 104-7 84-20 200-12 133-2 21-2 1-15-10-21-11-2-162-1-31-3-43-3-23-5-19-6-15-9-16-9-11-8-9-13-10-14-8-14-6-4-1 19 9 11 8 10 9 8 9 9 14 8 17 10 30 5 25 2 34 1 35 1 90v70l-5-2-11-7-13-10-15-9-12-5-10-3-7-1h-18l-14 3-15 6-13 9-12 11-11 15-8 15-9 24-26-4-25-2 2-74 4-119 4-84 3-22 6-23 12-37 6-10 8-9 14-9 14-5 14-3 10-1h-7l-18 3-15 5-13 7-12 9-9 9-9 14-5 12-4 15-7 36-4 26-3 29-1 15-1 41-1 175-1 1-25 2-16 3-12 4h-2l-1-9-2-149-2-65-3-63-7-106-5-81-2-52-2-108-3-61-1-30 3-11 6-7 36-26 19-14 144-104 13-9z" fill="#FCFCFB"/>
<path transform="translate(850)" d="m0 0 32 1 11 2 6 4 4 5 3 9 3 30h10l42 3 9 3 4 5 2 7 1 18-2 11-6 7-10 4-8 1h-45l-3 63-1 29v22l6 9 28 24 13 11 22 18 52-13 36-6 21-2h46l3-9 1 3-1 7 16 1 26 5 26 8 21 9 21 11 15 10 10 8 11 11 10 15 6 13 4 13 2 11v24l-3 15-6 16-6 11-8 11 2 10 1 12-3 16-5 10-7 8-6 4-5 2h-7l1 4h-2v5h-1v-5l-3-1 1-2-12-5-9-9-5-10v-2l-31 14-36 16-34 16 30 2 26 4 23 6 19 7 23 11 13 8 1-2 3 5 12 9 14 12 11 11 9 11 10 13 9 15 7 16 3 12 1 9 5 2 28 16 26 15 29 17 17 10 6 7 1 3v8l-4 10-6 10-8 9-4 2h-10l-16-8-16-9-4 18-19 74-26 93-20 71-16 57-1 2h149v3l-150 1-31 113-8 29h-2l-8-11 4-17 18-68 99-363v-8l-1-7h-10l-2 10-19 70-21 77-35 128-36 132-9 32-4-2-10-8 4-17 14-46 19-71 17-67 16-64 15-55 13-43 14-42 12-32 1-9-3-6-7-6-18-10-48-28-29-17-27-16-25-14-21-12-58-32-14-8-3-1v12l-18 301-14 233-6 2-10 1 1-41 4-74 8-120 10-146 6-115 4-62 5-51 6-55 1-17-4-11-4-8-2 1-2 16-31 351-21 237-9 100-5 2-9-8v-12l12-135 10-100 10-99 7-83 7-89 8-113 4-57v-21l-4-11-9-10-10-9-12-11-11-9-13-12-11-9-10-9-11-9-15-13-13-11-22-18-13-11-25-20-8-3h-7l-10 4-18 13-19 14-14 10-108 78-19 14-18 13-16 12-4 7-2 10 2 45 2 44 2 108 2 52 5 81 7 106 3 63 2 65 1 69v90l-9 4h-2l-7-161-17-404-6-141v-20l-5-1-8 11-2 5v158l1 79 1 53 3 64 6 88 4 80 8 187v11l-12 6h-2l-2-29-16-321-10-197-2-45-24 13-23 13-25 13-22 12-27 14-22 12-29 15-22 12-35 18-10 6-3 4v11l10 48 8 45 7 42 10 54 13 65 19 86 16 68 18 74 5 21-8 3h-4l-9-29-13-47-16-64-13-57-14-68-13-68-19-106-12-68h-4l-9 5-2 2v9l11 47 9 41 20 102 19 95 13 64 9 41 24 95 6 12-16 8-4 1 1-7 1-2v-9l-15-53-13-50-11-46-1-8h-145l-1-3h93l3-10 11-23 10-17 12-18-1-10-12-65-14-82-10-48-12-53v-4l-10 5-13 8-12 6h-12l-7-5-12-22-3-8v-6l4-6 8-6 28-16 27-15 29-16 42-22 33-17 47-24 28-14 19-10 64-32 1-1-56-9-27-5-15-5-15-8-13-10-9-9-10-14-8-17-3-9v-5h-2l-2 6-7 10-8 8-12 6-7 1 2 5-3 1 1 13-2-3-2-10-2-1 1-5h-9l-12-5-10-9-6-7-6-12-4-14-1-7v-14l3-16 5-12 7-10 8-8 12-6 9-2 13 1 14 7 8 7 7 10 5 11 1 3 4-9 7-13 9-12 13-13 10-7 16-8 15-5 12-2h21l66 11 39 5 9 1h11l21-16 18-13 21-16 14-10 19-14 36-26 14-10 18-13 17-12 18-13 6-7 1-111-59-3-8-4-4-7-1-10v-12l1-11 3-7 5-4 10-2h54v-41l4-6 3-2zm34 20 1 13 3 24 3 1v-9l-3-25-1-4zm70 53-3 6-8 5-3 1-18 1h-37l-1 127-33 1v6h38v-127h50l9-2 8-5 2-5-1-6zm-171 11 2 5 7 3h55v-7zm87 149 3 2 12 4 10 7 12 11 8 7 10 9 8 7 11 10 5 4 4-1-2-4-8-7-12-11-8-7-11-10-8-7-10-7-8-4-11-3zm-17 37-11 4-14 10-38 28-21 16-14 10-16 12-19 14-8 6 4 1 6-3 19-14 16-12 38-28 20-15 19-14 11-8 12-6zm-273 301-3 1 1 16-2 4-14 8-27 14-19 10-29 15-19 10-33 17-19 10-27 14-22 12-30 16-69 39-14 8 1 3 16-8 25-14 21-12 25-14 29-16 27-14 19-10 25-13 19-10 31-16 19-10 31-16 19-10 20-11 4-5v-9l-2-9zm667 8m80 130 1 4 25 14 27 16 25 14 6 6v7l-6 9 4 2 8-8 2-5-1-5-4-5-52-30-24-14-9-5z"/>
<path transform="translate(713,1242)" d="m0 0h15l19 3 17 5 21 9 15 8 12 9 12 11 10 12 11 19 10 14 1 6-16 8-23 11-36 18-25 15-20 13-17 9-2 3 1 5 5 5 8 6 12 7 18 8h13l14-3 10-6 10-13 5-6 4-1 6 4 7 7 7 8 13 14 11 14 2 3-1 4-14 14-7 8-9 9-13 10-14 8-13 4-10 2h-25l-17-4-21-9-16-10-13-10-13-11-15-14-7-7-7-8-10-11-11-14-9-13-4-7-4 19-6 15-6 11-8 11-11 12-13 9-13 6-19 5-16 2-38 2-3 1-1 4 15 28 12 22 18 35 5 9v2l11-6 18-11 6 1 1 6-14 67-5 25-3 3-9-1-63-18-24-7-2-3 1-5 26-16-2-6-13-28-11-21-14-24-13-22-5-1-5-4-6-18-3-8-2-2-16-2-21-6-18-8-9-5-1 17-4 13-5 9-9 10-11 8-11 5 7 20 7 18h2l15-10 54-37 2-2 2-8 3-2h8l4 4v5l-4 4-11 2-17 12-10 7-36 26-7 5-1 4 18 46 22 56 8 20v3h-46l9 35v11l-5 10-14 22-15 24-14 23h19l9 3-1 3-7 3h-19l-8-4-1-4 11-18 13-20 16-25 8-13 1-3v-7l-5-21-3-15-2-3-35-1h-21l-4 4-6 18-4 13-3 3-9 1h-82l-1 1v13l-2 10-1 3h-2l-3-7-1-5v-13l3-9 73 1 13 1h11l6-19 4-16h-35l9-31 15-50 13-43-8 2-70 13-18 4-2 1-3 6-3 2h-6l-5-4v-6l1-2-15-3-4-5v-5h-9l-9-3-2-4 1-9 6-10 1 2-5 10-1 6 1 4 16 2 5-8 3-2 5 1-1 5-9 6 1 6 3 2 7 1 1-3 5-3 4-1h7l1 2-3 3-10 3v1h12l8 1 89-20 8 1 1-7 10-33v-4l-15-8-10-9-6-7-5-10-4-12-46 23 1 15-3 11-4 8-4 4h-6l-2-3v-9l3-18 1-3-10-2-14-7-8-7-1-7 4-2 10 1 12 5 8 6 4-2 7-7 15-11 25-12 7-6 6-10 6-11 9-10 10-7 13-5 14-2 17 2 12 5 9 6 5 4 10 14 5 8 2 1 18 2 18 5 18 8-12-19-21-31-11-16-9-13 1-3 13-8 6-4 9-10 8-7 10-5 4 1 7 13 3 3 6-1 6-11 8-13 9-10 11-10 13-9 17-9 17-5 14-2h22l18 3 15 5 21 11 14 11 7 7 9 13 3 6 1-28 4-22 7-19 7-12 8-10 11-10 17-10 20-9 15-5 12-3zm-600 342-4 5v2l6-2 2-2v-3zm19 13-8 3-1 2 8-1 5-3z" fill="#D60A52"/>
<path transform="translate(578,611)" d="m0 0h2l1 5 13 258 16 318v12l-12 9-8 7-7 8-11 12-10 14-1 2-21-4-16-1h-22l-22 1-23 3-13 2-3-8-24-99-18-78-16-74-14-70-12-68-8-47-11-55-1-4v-11l5-6 27-14 22-12 33-17 22-12 27-14 22-12 25-13 22-12 24-13zm-111 123-6 2 4 1 8-2v-1zm-10 3-7 3 3 1 8-3zm-9 4m-2 1m-2 1m-2 1m-2 1-1 2 3-1zm-2 2m-2 1m-2 1-2 3 4-2zm-3 3m-2 1-3 4 4-2 1-2zm-6 6-2 4 3-2z" fill="#FCFCFA"/>
<path transform="translate(1085,612)" d="m0 0 5 1 23 13 24 13 23 13 27 15 24 14 26 15 25 15 26 15 43 25 7 8 1 8-5 15-11 30-17 52-15 53-17 65-16 65-18 69-14 49-10 33-2 9-5-2-19-12-24-12-7-3v-1l46-1 6-2 6-5 3-10 6-36 4-30 1-13-2-9-3-3v-2l-9-2h-70l-1-1h-67l-8 3-3 6v20l1 39 1 25-11 2h-6v-17l21-350 10-167z" fill="#FCFCFA"/>
<path transform="translate(819,756)" d="m0 0h30l17 3 16 5 16 8 9 6 10 9 8 9 14 19 11 18 8 15 7 18 5 20 2 15v78l-2 130-1 33-6-2-6-3-2-162-1-31-3-43-3-23-5-19-6-15-9-16-9-11-8-9-13-10-14-8-14-6-4-1 19 9 11 8 10 9 8 9 9 14 8 17 10 30 5 25 2 34 1 35 1 90v70l-5-2-11-7-13-10-15-9-12-5-10-3-7-1h-18l-14 3-15 6-13 9-12 11-11 15-8 15-9 24-26-4-25-2 2-74 4-119 4-84 3-22 6-23 12-37 6-10 8-9 14-9 14-5 14-3 10-1h-7l-18 3-15 5-13 7-12 9-9 9-9 14-5 12-4 15-7 36-4 26-3 29-1 15-1 41-1 175-1 1-16 1v-32l2-115 3-118 1-24 2-15 5-21 9-26 8-15 10-13 12-12 13-9 17-9 18-6z"/>
<path transform="translate(1348,1534)" d="m0 0 6 5 6 3 10 16 11 19-1 5-7 10-5 5-8 7-11 6h-2l10 26 6 25 4 26 4 29 4 17 7 22 2 11 1 11v17l-2 18-5 21-8 22-8 15-8 10-8 8-14 9-15 6-48 15-22 6-6 1h-22l-24-5-55-7-22-5-18-6-14-7-4 2-10 14-11 13-7 7-15 11-14 7-17 5-25 4-36 8-13 2-13 1h-10l-19-2-28-5-7-1-14 19-12 14-9 9-11 7-8 7-13 13-13 10-13 6-4 1h-19l-12-4-13-7-13-10-12-5-10-8-12-11-7-7-7-8-7-6-8-6-7-7-8-13-12-30-5-19v-26l4-12 7-10 7-7 3-2-23-4-15-5-17-9-12-11-6-7-5-11-4-16-10-22-4-11v-2h-16l-17-4-19-7-12-2-39-15-27-11-13-7-11-9-8-10-6-13-3-13v-10l3-14 7-13 9-10 4-3-2-6-7-11-12-14-9-15-3-6-2-2 11-7 15-11 3-2 10-1 8 16 12 14 10 15 8 15 6 16 1 4v9l-7 8-11 9-9 7-2 7 3 9 6 5 12 6 49 19 10 3 16 4 16 6 5 1h13l10-3 10-5h6l4 3 7 30 7 20 8 16 5 14 1 7 5 5 12 6 10 3 56 5 18 3 3 2 1 3-1 13-7 21-3 10v10l1 6-3 1h-9l-15 3-8 4-2 2v14l6 18 9 21 1 3 4 2 6 4 10 9 9 10 12 12 6 4 9 3 13 10 9 6 8 1 9-7 21-21 6-4 6-3 9-9 13-17 13-18 10-15 2-1 25 9 18 4 19 3h25l22-4 31-7 24-4 14-7 12-11 12-15 8-12 8-10 9-8 5-2h11l16 8 11 7 19 7 20 4 49 6 20 4 4 1h13l31-9 36-11 14-7 8-9 6-12 6-18 3-15 1-9v-12l-3-19-7-21-4-19-7-50-5-21-6-16-6-15-3-12v-9l3-10 4-6 8-6 19-7 5-4 5-10 2-9z" fill="#FEEC00"/>
<path transform="translate(862,1154)" d="m0 0h6l20 13 57 36 9 6 1 5-3 3-22 6h-2l8 30 4 16 5 2 5-1 13-11 17-12 19-11 16-8 17-7 22-6 7-1h25l27 12 50 25 18 10 8 7 5 8-1 11-6 26-14 48-3 9-8-1-25-6-33-6-10-2-1-2-2-23-5-17-7-13-8-8-10-5-4-1h-20l-11 4-9 6-8 9-8 14-3 9v18l2 21v60l4 51 1 26-5 4-10-1-40-6-37-4-30-2-1-1-7-56-8-52-8-46-11-55-8-35v-3l-20 5h-5l-2-2 1-7 34-64 13-24z" fill="#D60A52"/>
<path transform="translate(1129,256)" d="m0 0 1 3-1 7 16 1 26 5 26 8 21 9 21 11 15 10 10 8 11 11 10 15 6 13 4 13 2 11v24l-3 15-6 16-6 11-8 11 2 10 1 12-3 16-5 10-7 8-6 4-5 2h-7l1 4h-2v5h-1v-5l-3-1 1-2-12-5-9-9-5-10v-2l-31 14-36 16-34 16 30 2 26 4 23 6 19 7 23 11 13 8 1-2 3 5 12 9 14 12 11 11 9 11 10 13 9 15 7 16 3 12 1 8-5-2-27-15-21-12-25-14-26-14-29-15-74-37-19-10-6-4-4-6-1-4 5-44 3-24 1-2 5 2 13 10 12 9 8 3 8-2 10-8 10-9 4-7-1-8-6-9-29-29-7-8-16-16-7-8-36-36-8-7-14-13-11-9-12-11-11-9-10-9-11-9-14-12-4-4 8-3 30-8 29-6 29-4 12-1h46z" fill="#FEEB00"/>
<path transform="translate(989,1600)" d="m0 0 9 2 28 9 41 11 13 3-1 15-7 56-7 43-6 27-8 29-9 25-9 20-11 21-7 9-12 12-11 7-10 4-15 3-7 1h-45l-26-4-21-6-18-8-14-9-12-11-7-8-7-14-2-9-2-25-1-22v-12l1-16 5-25 9-31 12-35 9-22 7-14 4-4 20 4 37 5 5 3 1 6-10 33-2 12v38l4 20 6 15 6 8 8 5 8 2 9-1 8-6 6-8 8-17 7-24 6-27 4-26 5-59z" fill="#009FE3"/>
<path transform="translate(841,406)" d="m0 0h32l18 3 15 4 17 7 11 7 10 8 10 10 9 13 8 16 5 15 3 15 1 11v10l-2 19-5 19-5 12-7 13-9 11-10 10-15 10-15 7-19 5-13 2h-38l-18-3-21-6-18-8-16-9-15-11-10-9-9-12-7-15-4-15-2-16v-15l3-19 5-15 8-15 9-11 5-6 8-7 15-11 16-9 19-8 19-5z"/>
<path transform="translate(664,1585)" d="m0 0h16l16 4 16 8 13 9 12 14 2 2 5 1 2-23 1-1 11 1 10 5 7 4 14 2 2 1-3 46-7 104-4 69-1 75h26l7 2v6l-63 63h-5l-7-7-9-11-10-11-9-11-11-12-9-11-4-5 1-5 5-2h21l12-118v-14l-3-1-30 11-20 4h-15l-13-3-15-8-13-12-10-13-8-14-6-17-2-9v-16l3-20 4-17 6-15 6-11 8-11 9-10 7-7 14-9 12-5z" fill="#009FE3"/>
<path transform="translate(1196,1568)" d="m0 0h14l16 4 14 7 7 6 11 18 8 16 5 16 10 43 12 58 7 41 3 22v12l-5 16-7 10-8 6-24 10-22 6-16 3-19-1-19-3-19-5-16-6-13-7-9-7-9-9-6-12-2-9v-24l4-16 7-14 10-11 22-14 4-3 40-10h2v-10l-4-25-5-18-5-10-6-6h-7l-6 4-7 9-9 15-3 4 12 3 1 1v6l-43 29-4 3h-5l-4-5-16-28-10-18 1-5 6-1 9 2 1-6 9-17 12-18 9-11 9-8 26-17 18-10 13-5z" fill="#009FE3"/>
<path transform="translate(487,354)" d="m0 0h21l66 11 39 5 19 2-4 4-19 14-18 14-16 12-36 28-11 9-7 8v8l7 8 8 8 11 9 9 6 6 1 8-4 11-9 4 1 1 52-3 10-8 7-16 8-23-3-59-10-16-5-16-8-10-7-10-9-8-9-8-13-6-13-3-9v-5h-2l-2 6-7 10-8 8-12 6-7 1 2 5-3 1 1 13-2-3-2-10-2-1 1-5h-9l-12-5-10-9-6-7-6-12-4-14-1-7v-14l3-16 5-12 7-10 8-8 12-6 9-2 13 1 14 7 8 7 7 10 5 11 1 3 4-9 7-13 9-12 13-13 10-7 16-8 15-5z" fill="#FEEC00"/>
<path transform="translate(270,1429)" d="m0 0 17 2 12 5 9 6 5 4 10 14 5 8 2 1 18 2 18 5 18 8 13 7 2-5 9-8 10-5 3-1h11l3 3-2 6-15 10-8 5 6 13 2 8v12l-3 6-5-2-4-3-6-18-3-8-2-2-16-2-21-6-18-8-9-5-1 17-4 13-5 9-9 10-11 8-11 5 7 20 7 18h2l15-10 54-37 2-2 2-8 3-2h8l4 4v5l-4 4-11 2-17 12-10 7-36 26-7 5-1 4 18 46 22 56 8 20v3h-46l9 35v11l-5 10-14 22-15 24-14 23h19l9 3-1 3-7 3h-19l-8-4-1-4 11-18 13-20 16-25 8-13 1-3v-7l-5-21-3-15-2-3-35-1h-21l-4 4-6 18-4 13-3 3-9 1h-82l-1 1v13l-2 10-1 3h-2l-3-7-1-5v-13l3-9 73 1 13 1h11l6-19 4-16h-35l9-31 15-50 13-43-8 2-70 13-18 4-2 1-3 6-3 2h-6l-5-4v-6l1-2-15-3-4-5v-5h-9l-9-3-2-4 1-9 6-10 1 2-5 10-1 6 1 4 16 2 5-8 3-2 5 1-1 5-9 6 1 6 3 2 7 1 1-3 5-3 4-1h7l1 2-3 3-10 3v1h12l8 1 89-20 8 1 1-7 10-33v-4l-15-8-10-9-6-7-5-10-4-12-46 23 1 15-3 11-4 8-4 4h-6l-2-3v-9l3-18 1-3-10-2-14-7-8-7-1-7 4-2 10 1 12 5 8 6 4-2 7-7 15-11 25-12 7-6 6-10 6-11 9-10 10-7 13-5zm-157 155-4 5v2l6-2 2-2v-3zm19 13-8 3-1 2 8-1 5-3z" fill="#010000"/>
<path transform="translate(854,232)" d="m0 0h9l14 3 9 4 9 6 12 11 8 7 10 9 8 7 11 10 5 4 5-1 13 12 8 7 12 11 8 7 13 12 10 9 8 7 14 13 8 7 13 12 12 11 8 7 15 14 8 7 15 14 10 9 10 12 12 16-1 4-8 7-8 1h-8l-10-6-9-9-8-7-12-11-40-36-8-7-11-10-11-9-13-12-11-9-11-10-11-9-14-12-22-18-32-26-13-10-15-12-10-6-12-1-11 4-14 10-38 28-21 16-14 10-16 12-19 14-7 5h5l-5 5-18 13-38 28-16 12-76 56-5 3-4-1-4 2-10-11-9-11-3-4v-2l14-11 13-11 14-11 16-13 20-15 17-13 14-10 18-13 19-14 18-13 19-14 14-10 36-26 19-14 18-13 19-14 14-8 14-4z" fill="#D60A52"/>
<path transform="translate(1481,1421)" d="m0 0 4 4 6 10 4 2 10 1 5 9 9 11 7 14 4 16v6l4-3 4 2 1 2v10l-3 5-6-4-1 10-6 18-7 11-7 8-11 7-4 2-1 5 7 21 5 5 24 15 38 24 17 11 7 4h11l2 2 6-1-14-4v-4h10l12 6-3 2-5 3-4 2-4 4-7 3h-3l-4-10-18-11-17-11-20-12-24-15-6-3 12 37 12 36 10 31v2l-39 1v7l11 48 2 12 4-1 78-4h13l1 3-1 13-5 12-5 6h-2v-13l2-10v-2h-33l-54-1-6-23-13-44-3-3h-32l-2 2-21 87-11 46-1 14-2 2-6-1-10-8-11-7-3-5v-3l10 1 12 6 5 3 2-10 22-90 7-31v-6l-49-1 1-6 13-29 17-39 13-30-9 1-26 7h-9l-6-10-13-25-17-28-4-4-6-3-2-3v-6l3-4 7-1 4 2 1 2v12l8 16 13 23 12 22 4 1 42-11 5-5 10-21v-4l-10-7-6-5-9-13-5-12-3-13-1-8-3 3-3-1-3-6v-8l3-4 4 1 2 2 6-21 7-13 9-10 11-8h2l-2-7-3-5v-2l9 3 10 5 9 2-1-4zm116 220v2l7 2h7l-3-3-4-1z" fill="#020100"/>
<path transform="translate(560,1057)" d="m0 0h14l6 4 3 5 1 5 3 41v52l-3 6-5 4-5 2-6 1-57 2-43 1h-22l-8-4-7-7-3-8-6-33-7-45v-10l4-5 8-2 82-6z"/>
<path transform="translate(478,734)" d="m0 0h11l16 3 12 5 10 6 12 11 9 12 7 15 4 13 2 15v12l-3 14-8 16-9 11-12 10-16 8-10 3-7 1h-15l-14-3-16-7-13-9-10-9-10-13-8-16-4-13-1-6v-16l3-12 7-14 7-9 10-10 14-9 15-6z"/>
<path transform="translate(1642,1326)" d="m0 0h11l13 3 12 6 12 11 7 8 8 15 5 15 2 10 1 20-2 18-5 17-8 16-8 11-9 9-11 7-12 5-4 1h-13l3 6-1 2h-3l-3 14-5 12-2 1 3-9 4-16 1-3h-6l2-7-12-4-11-6-10-9-8-11-8-16-4-13-2-12v-25l3-16 6-16 7-13 8-10 7-7 14-9 12-4z" fill="#F29100"/>
<path transform="translate(1174,721)" d="m0 0h20l15 3 12 5 11 7 10 9 7 10 6 12 4 13 2 15v13l-3 14-5 12-8 11-8 8-14 9-11 5-17 4-8 1h-13l-15-3-12-5-11-8-10-10-8-14-5-13-3-17v-15l3-15 5-12 7-11 9-10 13-9 11-5z"/>
<path transform="translate(52,1302)" d="m0 0h16l13 4 10 5 11 9 8 9 7 11 7 15 4 14 2 16v12l-3 19-5 14-6 11-11 12-9 7-11 5 3 4v2l-4 1 1 8 8 16v3l-7-10-5-14v-3l-4 1 1-7h-16l-14-4-12-7-13-12-9-13-8-17-4-15-2-16v-10l2-15 4-14 7-14 8-10 10-9 13-6z" fill="#D50A52"/>
<path transform="translate(610,460)" d="m0 0 6 2 6 136 16 381 8 188 1 22-23 8-1-11-8-187-4-80-7-106-2-46-1-53-1-79v-158l4-8z" fill="#F39200"/>
<path transform="translate(1079,1062)" d="m0 0h67l1 1 68 1 9 2 6 5 2 9-2 20-6 42-5 25-6 7-3 2-5 1h-44l-10-2-31-12-19-5-7-1-24-1-1-7-1-18-1-39v-20l3-6 5-3z"/>
<path transform="translate(819,756)" d="m0 0h30l17 3 16 5 16 8 9 6 10 9 8 9 14 19 11 18 8 15 7 18 5 20 2 15v78l-2 130-1 33-6-2-6-3-2-162-1-31-3-43-3-23-5-19-6-15-9-16-9-11-8-9-13-10-14-8-14-6-6-2-19-3v-2h-29l-18 3-15 5-13 7-12 9-9 9-9 14-5 12-4 15-7 36-4 26-3 29-1 15-1 41-1 175-1 1-16 1v-32l2-115 3-118 1-24 2-15 5-21 9-26 8-15 10-13 12-12 13-9 17-9 18-6z"/>
<path transform="translate(1247,1329)" d="m0 0h13l32 7 2 1-1 6-13 27-11 26-5 14-17 79-1 21-5 5-13 6-16 3h-19l-16-3-10-4-8-6-7-7-6-12-1-5v-11l4-15 6-12 10-13 8-8 15-10 7-3h12l12 4h4l5-15 12-57 6-17z" fill="#F39200"/>
<path transform="translate(1469,852)" d="m0 0 11 1 11 4 11 7 8 8 9 14 5 12 3 12 1 8v18l-3 16-6 15-7 11-8 9-10 7-10 4-6 2 2 5h-5l3 14 4 10-1 2-5-10-2-8v-8h-4l2-6h-9l-12-4-11-7-8-8-9-14-6-15-3-16v-19l3-16 5-13 6-11 11-12 11-7 11-4z" fill="#D50B52"/>
<path transform="translate(1074,460)" d="m0 0 3 4 5 12 1 9-6 59-5 47-4 55-6 117-8 121-10 146-4 68-2 59-2 5-21 4h-6v-10l17-192 29-328 15-170 2-5z" fill="#F39200"/>
<path transform="translate(850,13)" d="m0 0h33l2 12 3 25v7l4-1v2l17 1 36 4 6 3 3 4-1 8-6 5-7 3-18 1h-13l-24-1v127l-1 1h-37v-129h-62l-5-3-2-4v-10l3-6 7-3h60v-15l1-23z" fill="#FEEB00"/>
<path transform="translate(1142,93)" d="m0 0 13 1 10 4 9 7 8 9 7 14 4 16v21l-4 16-7 14-11 12-10 6-6 2-8 1 1 4h-3l-1 11-3 8-1-3 2-6 1-10-4-1 2-4-8-1-11-6-8-7-9-14-5-14-2-13v-11l3-17 5-12 6-9 6-7 9-6 10-4z" fill="#D50B52"/>
<path transform="translate(353,384)" d="m0 0 13 1 14 7 8 7 7 10 5 11 3 11 1 7v17l-3 14-5 12-7 10-8 8-12 6-7 1 2 5-3 1 1 13-2-3-2-10-2-1 1-5h-9l-12-5-10-9-6-7-6-12-4-14-1-7v-14l3-16 5-12 7-10 8-8 12-6z" fill="#D50B52"/>
<path transform="translate(841,927)" d="m0 0h88l1 1v101h-89z" fill="#00ABE8"/>
<path transform="translate(574,570)" d="m0 0h2l3 13-1 7-5 5-28 15-35 18-19 10-27 14-29 15-19 10-27 14-22 12-30 16-69 39-18 10-4-2-8-15v-3l48-28 46-26 46-25 28-15 62-32 64-32 23-11z" fill="#D60B52"/>
<path transform="translate(748,1041)" d="m0 0h84v63l-11 7-11 9-9 10-9 14-6 11-1 1h-19l-17-1-6-7-1-2v-20l5-83z" fill="#00ABE8"/>
<path transform="translate(1084,579)" d="m0 0 9 1 41 21 19 10 28 15 26 14 23 13 27 15 25 14 24 14 22 12v4l25 14 27 16 25 14 5 4 2 3v7l-4 6-5 5-5-1-20-13-25-16-19-12-24-14-23-13-27-15-23-13-26-14-23-13-24-13-23-13-25-14-27-16-5-4-3-10-1-6z" fill="#D60B52"/>
<path transform="translate(753,929)" d="m0 0h76l1 1v99h-83l2-42 3-56z" fill="#00ABE8"/>
<path transform="translate(840,799)" d="m0 0h8l15 4 14 7 13 10 10 11 10 15 7 15 6 18 4 22 1 15h-88z" fill="#00ABE8"/>
<path transform="translate(808,798)" d="m0 0h21v120h-76v-18l2-20 4-19 5-16 7-16 7-13 6-7 11-7z" fill="#00ABE8"/>
<path transform="translate(322,751)" d="m0 0 2 2 26 147 16 85 14 69 17 75 16 63 16 56 3 12 2 1-13 4-2 1-6-9-19-74-10-41-15-72-21-107-19-95-9-44-11-46-2-9v-9l6-5z" fill="#F39200"/>
<path transform="translate(1286,1418)" d="m0 0 11 3 39 12 1 1-1 9-7 27-6 34-2 16-4 18-1 6-3 3h-10l-39-5-12-3-3-3 1-7 17-57 13-43 5-10z" fill="#F39200"/>
<path transform="translate(1349,769)" d="m0 0h10l2 7v8l-28 103-69 253-24 90h-3l-11-11 15-55 19-70 35-128 21-77 32-117z" fill="#F39200"/>
<path transform="translate(1066,1402)" d="m0 0 9 3 33 14 2 1-3 10-5 19-1 7-1 26 16-2-2 5-5 11-4 16-1 7v29l-6-2-17-9-12-9-10-9-10-10-11-15 1-3 14-1-1-4v-34l4-22 5-17 4-10z" fill="#F39200"/>
<path transform="translate(872,1520)" d="m0 0h3v15h14l15 2 20 5 20 8 15 8 1 2-14 25-9 15-6-2-15-7-16-5-11-2-13-1v15l-7-4-11-6-13-5-15-3-19-2 2-5 9-13 11-12 9-9 15-11z" fill="#009FE3"/>
<path transform="translate(816,776)" d="m0 0h20l9 1v1h-22l-16 2-15 4-14 7-10 8-6 8-5 10-12 37-6 26-2 16-4 84-4 119-2 66-1 8h-12v-175l1-41 3-36 4-29 7-36 4-17 5-13 7-12 11-12 8-7 13-8 14-6 17-4z" fill="#F39200"/>
<path transform="translate(842,421)" d="m0 0h26l18 3 21 6 14 7 13 10 10 11 9 14 7 17 3 14v28l-2 8h-1v-20l-2-17-5-17-7-14-10-13-11-9-11-6-13-5-23-5-9-1h-24l-18 3-21 7-17 9-12 9-9 9-7 10-8 16-4 13-1 6v22l4 15 7 13 7 9 14 11 15 9 19 7 12 3 16 2h25l24-3 15-4 12-5 10-6 10-8 10-13 7-15 4-9 2 1-4 17-6 14-10 14-9 9-10 7-16 8-13 4-15 3-8 1h-28l-18-3-20-6-20-9-14-9-12-12-9-14-7-16-3-12-1-7v-21l4-18 7-16 8-11 9-10 14-11 13-8 16-8 20-6z" fill="#F39200"/>
<path transform="translate(626,1491)" d="m0 0 9 3 14 8 12 8 13 10 14 12 6 6v2l-27 9-20 9-16 10-3 1-1-14-14 1-16 4-9 5-4-2-16-21-10-14v-2l14-8 14-6 17-4 16-2h7z" fill="#D60C52"/>
<path transform="translate(244,842)" d="m0 0h9l11 4 10 9 6 9 4 11 1 5v18l-4 15-7 11-7 7-10 5-7 2v2h-2v5l-2-4-2-1 1-4-7-1-8-4-8-8-5-8-4-12-1-5v-17l3-12 5-10 9-10 8-5z" fill="#009FE3"/>
<path transform="translate(614,63)" d="m0 0h11l11 4 10 9 6 10 4 11 1 6v15l-3 13-7 13-7 7-12 6h-3l1 4h-3v5h-1v-5h-2l1-4h-7l-10-4-9-8-6-10-4-11-1-4v-20l4-14 7-11 9-8z" fill="#02A0E3"/>
<path transform="translate(429,1079)" d="m0 0h67l1 2 7 71v11l-10 2-18 2h-12l-10-3-7-8-6-18-12-56z" fill="#00ABE8"/>
<path transform="translate(843,1041)" d="m0 0h88v80l-9-6-14-9-11-5-13-4-7-1h-18l-16 3z" fill="#00ABE8"/>
<path transform="translate(565,1072)" d="m0 0h6v78l-4 6-4 3-12 2-25 2h-12l-1-4-4-46-3-27v-10z" fill="#00ABE8"/>
<path transform="translate(1083,1079)" d="m0 0h61v83h-27l-16-4-18-2z" fill="#00ABE8"/>
<path transform="translate(860,448)" d="m0 0h22l16 4 11 6 10 8 9 11 8 16 5 15 1 10-32-1-52-1v-67z" fill="#009FE3"/>
<path transform="translate(770,525)" d="m0 0h77l1 1v64h-21l-15-3-12-4-12-6-11-9-7-10-4-8-2-9v-14z" fill="#009FE3"/>
<path transform="translate(1155,1079)" d="m0 0h11l50 3-1 10-9 49-4 16-5 4-10 2h-33l-1-1v-75z" fill="#00ABE8"/>
<path transform="translate(859,526)" d="m0 0h81l1 1v14l-3 10-6 10-12 12-13 8-15 6-15 3h-18l-1-1v-62z" fill="#009FE3"/>
<path transform="translate(1238,436)" d="m0 0h11l9 4 8 7 6 9 4 12 1 12-3 16-5 10-7 8-6 4-5 2h-7l1 4h-2v5h-1v-5l-3-1 1-2-12-5-9-9-6-12-2-9v-16l4-13 5-9 7-7 8-4z" fill="#F29201"/>
<path transform="translate(833,450)" d="m0 0h15v65h-83l2-13 8-16 7-9 8-8 14-9 16-7z" fill="#009FE3"/>
<path transform="translate(1195,1761)" d="m0 0h14l12 3 8 5 4 5 2 6-1 8-6 10-11 10-8 5-8 3-10 1-12-3-9-6-5-6-2-5 1-10 6-12 9-9 10-4z" fill="#FDFDFD"/>
<path transform="translate(860,781)" d="m0 0 7 1 15 6 13 7 12 9 11 10 13 17 9 17 7 21 3 14 3 29 2 32 1 31 1 87v75l-7-3-2-161-2-56-2-19-5-23-9-26-9-19-9-13-11-12-10-8-14-8-14-6z" fill="#F39200"/>
<path transform="translate(1318,1343)" d="m0 0h10l14 8 7 8 2 6v10l-4 10-7 8-10 6-6 2-9-1-10-4-8-7-4-8v-10l4-10 8-10 10-7z" fill="#F39300"/>
<path transform="translate(706,1300)" d="m0 0h10l10 3 7 6 3 7v11l-4 8-8 7-11 5-13 3h-15l-6-3-5-6-1-3v-8l5-12 7-9 7-5 9-3z" fill="#FDFDFD"/>
<path transform="translate(331,1481)" d="m0 0 5 2 19 9 9 3 1 4 10 14 6 9-2 4-2 7-9 7-18 12-4-5-12-17-10-14 1-5 4-13z" fill="#FEEB00"/>
<path transform="translate(47,1303)" d="m0 0 3 1-10 8-9 9-9 14-5 11-4 15-1 7v17l3 16 6 16 7 12 8 10 8 8 10 7 16 8 9 3-1 2-16-1-14-4-12-7-13-12-9-13-8-17-4-15-2-16v-10l2-15 4-14 7-14 8-10 10-9 13-6z" fill="#DF546F"/>
<path transform="translate(345,1028)" d="m0 0h1l12 58 2 11h-52l3-10 11-23 10-17 8-12z" fill="#FEE800"/>
<path transform="translate(1461,853)" d="m0 0h7l-4 3-11 7-8 7-9 12-7 15-4 16v22l4 17 8 16 8 11 7 7 13 9 6 3v1h-8l-12-4-11-7-8-8-9-14-6-15-3-16v-19l3-16 5-13 6-11 11-12 11-7z" fill="#DF546F"/>
<path transform="translate(440,818)" d="m0 0h39v42l-10-1-12-5-8-7-6-10-3-9z" fill="#009FE3"/>
<path transform="translate(498,1375)" d="m0 0 7 1 4 4 2 6v8l-2 10-4 8-6 4-3 1h-9l-10-5-5-6-1-3v-7l5-10 8-6 9-4z" fill="#FDFDFD"/>
<path transform="translate(953,292)" d="m0 0 8 6 17 16 8 7 10 9 12 11 10 9 8 7 14 13 8 7 13 12 12 11 8 7 15 14 8 7 15 14 10 9 10 12 12 16-1 4-8 7-7 1 5-5 4-5-6-9-13-17-17-17-8-7-13-12-12-11-10-9-24-22-8-7-14-13-8-7-13-12-10-9-8-7-12-11-8-7-10-9z" fill="#FCDB00"/>
<path transform="translate(1238,774)" d="m0 0 2 2 4 18v19l-3 11-5 9-8 9-15 10-13 6-12 3h-16l-14-4-12-7-8-7-7-11-4-11-1-4v-26l2 1 4 22 4 12 6 10 4 5 11 7 9 3 5 1h21l12-3 14-7 7-6 6-9 5-14 2-13z" fill="#F39200"/>
<path transform="translate(476,769)" d="m0 0 4 1v36h-41l1-12 6-12 7-6 8-4 7-2z" fill="#009FE3"/>
<path transform="translate(1188,803)" d="m0 0 24 1 14 1-1 7-5 12-7 9-8 7-10 5-7 1z" fill="#009FE3"/>
<path transform="translate(1142,804)" d="m0 0h34v43l-11-2-9-5-7-8-4-8-3-13z" fill="#009FE3"/>
<path transform="translate(1142,93)" d="m0 0 13 1 10 4 9 7 8 9 7 14 4 16v21l-4 16-7 14-11 12-10 6-6 2h-7l5-4 9-7 8-8 8-13 5-15 1-7v-15l-3-14-8-16-9-10-7-6-9-5-6-1z" fill="#DF546F"/>
<path transform="translate(1191,759)" d="m0 0h13l8 4 6 7 5 12 2 13-1 1h-9l-27-3v-33z" fill="#009FE3"/>
<path transform="translate(347,385)" d="m0 0h6l-5 4-11 8-9 11-7 15-3 16v10l3 16 4 10 7 11 6 7 12 9 6 3v1h-8l-12-5-10-9-6-7-6-12-4-14-1-7v-14l3-16 5-12 7-10 8-8 12-6z" fill="#DF546F"/>
<path transform="translate(666,1650)" d="m0 0h12l8 4 6 7 2 5v11l-4 8-7 6h-8l-7-6-4-8-3-9v-13z" fill="#FDFDFD"/>
<path transform="translate(491,818)" d="m0 0h36l-2 11-6 11-9 9-16 8h-3z" fill="#009FE3"/>
<path transform="translate(491,770)" d="m0 0 10 2 10 5 7 7 5 10 2 8v5l-10 1h-24z" fill="#009FE3"/>
<path transform="translate(1168,760)" d="m0 0h9v32h-34v-7l4-12 6-7 10-5z" fill="#009FE3"/>
<path transform="translate(1089,580)" d="m0 0 6 1 39 20 19 10 28 15 26 14 23 13 27 15 25 14 24 14 22 12-1 3-6-2-28-16-27-15-21-12-54-30-54-29-39-20-9-5z" fill="#FBD300"/>
<path transform="translate(1508,1766)" d="m0 0h2l1 6 4-1 78-4h13l1 3-1 13-5 12-5 6h-2v-13l2-10v-2h-33l-54-1z" fill="#070302"/>
<path transform="translate(434,771)" d="m0 0 1 3-5 15-2 11v14l4 16 7 13 8 10 9 9 7 6 2 5-6-2-11-7-14-14-8-13-6-15-2-9v-12l4-13 7-11z" fill="#F39200"/>
<path transform="translate(716,370)" d="m0 0 2 1-16 12-133 98-9 6-3-1 1-3 14-10 95-70 16-12 19-14 8-6z" fill="#FCD800"/>
<path transform="translate(244,842)" d="m0 0h9l11 4 10 9 6 9 4 11 1 5v18l-4 15-7 11-7 7-10 5-9 2v-2l10-6 7-6 7-10 5-14 1-7-1-16-5-13-8-11-11-8-9-2z" fill="#00ACE9"/>
<path transform="translate(614,63)" d="m0 0h6l-12 8-8 8-6 12-3 12v12l3 13 6 11 9 10 9 6 2 2-10-1-10-6-8-9-6-13-2-8v-20l4-14 7-11 9-8z" fill="#00ACE9"/>
<path transform="translate(1604,1427)" d="m0 0 1 4v21l3 10 4 6 5 4 5 2h11l10-3 8-4 2 1-11 17-3 2-9-1-11-7-9-9-7-12-3-11v-8l3-10z" fill="#FDFDFD"/>
<path transform="translate(105,1393)" d="m0 0 3 3 4 11v10l-4 13-7 11-9 9-7 4h-7l-5-4-9-12 2-1 13 4h13l8-4 5-6 2-6v-22z" fill="#FDFDFD"/>
<path transform="translate(1188,1463)" d="m0 0h9l4 3v7l-4 8-7 6h-8l-3-3-1-5 3-9 5-6z" fill="#FDFDFD"/>
<path transform="translate(94,1568)" d="m0 0 1 2-5 10-1 6 1 4 16 2 5-8 3-2 5 1-1 5-9 6 1 6 3 2 7 1 1-3 5-3 4-1h7l1 2-3 3-10 3v1h12l8 1 2 1v2l-5 2-3 6-3 2h-6l-5-4v-6l1-2-15-3-4-5v-5h-9l-9-3-2-4 1-9zm19 16-4 5v2l6-2 2-2v-3zm19 13-8 3-1 2 8-1 5-3z" fill="#080401"/>
<path transform="translate(742,1165)" d="m0 0h39l-1 6-3 8-26-4-9-1z" fill="#00AAE8"/>
<path transform="translate(533,848)" d="m0 0 2 1-8 11-10 8-12 5-10 2h-25v-1l20-3 21-10z" fill="#F39200"/>
<path transform="translate(1505,939)" d="m0 0 2 2 2 7v8l-3 10-6 10-10 9-7 4-7 1-5-3-8-14h3l11 5 4 1h9l6-3 5-6 3-8 1-5z" fill="#FDFDFD"/>
<path transform="translate(94,1568)" d="m0 0 1 2-5 10-1 6 1 4 16 2 5-8 3-2 5 1-1 5-9 6 1 6 3 2 7 1 1-3 5-3 4-1h7l1 2-3 3-10 3v3l-4-1-10-2-4-5v-5h-9l-9-3-2-4 1-9zm19 16-4 5v2l6-2 2-2v-3zm19 13-8 3-1 2 8-1 5-3z" fill="#2B140B"/>
<path transform="translate(350,484)" d="m0 0 5 2 8 3h11l7-4-2 4-9 7-9 3-6-5z" fill="#FDFDFD"/>
<path transform="translate(1121,193)" d="m0 0 7 5 9 1 11-4 5-2-7 13-3 2-9-2-9-7-4-4z" fill="#FDFDFD"/>
<path transform="translate(1635,1605)" d="m0 0 5 5 5 7 1 3v7l-5 5-14 3v6l-5 5-4-1 5-2 2-9-9-3-3-2 1-5 3-1 6 3 3 5v2l14-3 4-4-1-7-7-11zm-20 20 1 4 6 3h2l-2-5-3-2z" fill="#1C0C08"/>
<path transform="translate(230,920)" d="m0 0h2l3 3h9l9-3-2 6-5 5-7-2-8-6z" fill="#FAFCFC"/>
<path transform="translate(1472,1092)" d="m0 0v3l-5 8v6l5 3 9 1 5-6h6l1 3-3 3-7 3 1 7 2 2-4-1-1-1v-7l-10-2-5-3-2-5 3-8zm15 16-4 4 4 1 4-2v-3z" fill="#26110D"/>
<path transform="translate(616,140)" d="m0 0 11 4h6l4-1-4 5-5 3h-6l-4-5z" fill="#FDFDFD"/>
<path transform="translate(1226,504)" d="m0 0 5 4h10l7-3-2 6-4 4-6-1-9-7z" fill="#FDFCFA"/>
<path transform="translate(130,1596)" d="m0 0h7l1 2-3 3-10 3v3l-4-1-10-2-3-4 5 2 7 1 1-3 5-3zm2 1-8 3-1 2 8-1 5-3z" fill="#3B1F09"/>
<path transform="translate(1596,1640)" d="m0 0h10l12 6-3 2-5 3h-3v-2l3-1-14-4zm1 1v2l7 2h7l-3-3-4-1z" fill="#1B0D07"/>
<path transform="translate(99,1505)" d="m0 0 7 6 7 11 1 3v10l-6 12-1-2 4-9v-12l-4-8-8-9z" fill="#30180A"/>
<path transform="translate(1624,1541)" d="m0 0v3l-7 11-3 9 1 10 4 7-1 2-5-7-1-3v-12l7-14z" fill="#2B1111"/>
<path transform="translate(1497,1121)" d="m0 0h10l-1 4-4 1h-8v2l8 2v1l-8-1-8-4v-1l6-2zm1 1-4 2v1h7l5-2v-1z" fill="#371814"/>
<path transform="translate(1132,305)" d="m0 0 5 1 2 1 1 3 6 1-4 2-2 7-2-1 1-6-7-3-1-4z" fill="#A17B00"/>
<path transform="translate(1485,1036)" d="m0 0 4 4 6 12 1 8-3 8-5 5 2-5 3-6v-9l-6-12z" fill="#41210D"/>
<path transform="translate(385,457)" d="m0 0 2 2 1 3v11l-4 9-1-3 2-9z" fill="#FDFDFD"/>
<path transform="translate(377,608)" d="m0 0h10l-1 3-3 1h-7v2l5 1-4 1-5-3-4-2 7-2zm1 1-2 2h7l2-2z" fill="#411B1B"/>
<path transform="translate(1225,590)" d="m0 0h7l4 2h3l1-2v3l-7 3-3-1-5-2z" fill="#955A00"/>
<path transform="translate(1116,168)" d="m0 0h1l2 18 2 7-3-3-3-7v-13z" fill="#FDFDFD"/>
<path transform="translate(1120,317)" d="m0 0 10 1 5 4-6 3-3-1 2-2 1-2h-5l-4 1z" fill="#261700"/>
<path transform="translate(226,899)" d="m0 0 1 4 1 11 2 6-3-3-2-4-1-7z" fill="#FDFDFD"/>
<path transform="translate(367,598)" d="m0 0 1 2 3 2-5 1 2 8-3-1-1-6-8-2 4-1h5z" fill="#2F1410"/>
<path transform="translate(237,1006)" d="m0 0h5l3 4v6l-4 2 2-3v-3l-2-2v-2l-1 1h-3z" fill="#5D3012"/>
<path transform="translate(372,543)" d="m0 0 3 3 2 5v9l-3 5-1-2 2-5-1-9z" fill="#3C1A16"/>
<path transform="translate(1234,582)" d="m0 0 5 1 2 5-6-2-2-1z" fill="#765300"/>
<path transform="translate(1137,307)" d="m0 0h2l1 3 6 1-4 2-2 7-2-1 1-6-2-2z" fill="#120A00"/>
<path transform="translate(635,236)" d="m0 0 3 1 1 2-2 1 3 2-6-1-4-3z" fill="#512813"/>
<path transform="translate(357,584)" d="m0 0v3l-4 7v5l-2-1 1-7 4-6z" fill="#34180F"/>
<path transform="translate(628,228)" d="m0 0 1 2 3 1-4 2-1 4-1-5-3-1 4-1z" fill="#7E3A26"/>
<path transform="translate(246,945)" d="m0 0h1l-1 8-2 2z" fill="#653C00"/>
<path transform="translate(369,596)" d="m0 0h5v4l-1-3-5 1z" fill="#250E12"/>
<path transform="translate(228,1015)" d="m0 0h7l-4 3h-3z" fill="#52241E"/>
<path transform="translate(235,1016)" d="m0 0 4 1-1 3h-2z" fill="#2E170B"/>
<path transform="translate(94,1499)" d="m0 0 4 3-1 2-3-3z" fill="#3A1C0D"/>
<path transform="translate(254 1e3)" d="m0 0h1v5h-3z" fill="#3A1C0D"/>
<path transform="translate(235,969)" d="m0 0 1 4-2 3z" fill="#AC4E37"/>
<path transform="translate(639,235)" d="m0 0 5 1-1 2-4-2z" fill="#3A1C0D"/>
<path transform="translate(635,191)" d="m0 0h1v8h-1z" fill="#37151B"/>
<path transform="translate(1629,1533)" d="m0 0 1 2-3 3z" fill="#1F0C0F"/>
<path transform="translate(1632,1601)" d="m0 0 3 2-1 2z" fill="#513000"/>
<path transform="translate(1476,1087)" d="m0 0v3l-2 1z" fill="#763E12"/>
<path transform="translate(1231,551)" d="m0 0h1v6h-1z" fill="#250E12"/>
<path transform="translate(362,525)" d="m0 0 2 2-1 3z" fill="#250E12"/>
<path transform="translate(1232,557)" d="m0 0 2 4-2-1z" fill="#8D4B16"/>
<path transform="translate(1621,1586)" d="m0 0 2 1-1 2z" fill="#74391B"/>
<path transform="translate(1619,1583)" d="m0 0 2 1-1 2z" fill="#37151B"/>
<path transform="translate(97,1563)" d="m0 0v3z" fill="#74391B"/>
<path transform="translate(1626,1538)" d="m0 0v3z"/>
<path transform="translate(1487,1073)" d="m0 0v3z" fill="#74391B"/>
<path transform="translate(1483,1033)" d="m0 0 2 1-1 2z" fill="#37151B"/>
<path transform="translate(251,998)" d="m0 0 2 1-1 2z"/>
<path transform="translate(1245,574)" d="m0 0 2 1-1 2z" fill="#6F2A37"/>
<path transform="translate(370,540)" d="m0 0 2 1-1 2z" fill="#3C2400"/>
<path transform="translate(365,532)" d="m0 0 2 1-1 2z" fill="#74391B"/>
<path transform="translate(1132,251)" d="m0 0v3z" fill="#6F2A37"/>
<path transform="translate(1134,248)" d="m0 0v3z" fill="#3C2400"/>
<path transform="translate(1137,243)" d="m0 0v3z" fill="#794900"/>
<path transform="translate(633,227)" d="m0 0 1 3-2-1z" fill="#37151B"/>
<path transform="translate(616,224)" d="m0 0 1 4z"/>
<path transform="translate(619,219)" d="m0 0v3z" fill="#37151B"/>
<path transform="translate(622,215)" d="m0 0v3z" fill="#B15E1B"/>
<path transform="translate(633,201)" d="m0 0v3z" fill="#74391B"/>
<path transform="translate(630,182)" d="m0 0 2 1-1 2z" fill="#794900"/>
<path transform="translate(623,166)" d="m0 0 1 4z" fill="#37151B"/>
<path transform="translate(233,1020)" d="m0 0 3 1z" fill="#4A1C25"/>
<path transform="translate(246,1010)" d="m0 0 3 1z" fill="#4A1C25"/>
<path transform="translate(235,976)" d="m0 0" fill="#4A1C25"/>
<path transform="translate(1240,533)" d="m0 0" fill="#9B4C25"/>
<path transform="translate(1241,530)" d="m0 0" fill="#4A1C25"/>
<path transform="translate(619,230)" d="m0 0 3 1z" fill="#9B4C25"/>
<path transform="translate(624,170)" d="m0 0" fill="#4A1C25"/>
<path transform="translate(1630,1598)" d="m0 0" fill="#794900"/>
<path transform="translate(1627,1594)" d="m0 0" fill="#E97337"/>
<path transform="translate(1624,1590)" d="m0 0" fill="#E97337"/>
<path transform="translate(95,1566)" d="m0 0"/>
<path transform="translate(98,1561)" d="m0 0" fill="#6F2A37"/>
<path transform="translate(101,1556)" d="m0 0" fill="#E97337"/>
<path transform="translate(104,1551)" d="m0 0" fill="#794900"/>
<path transform="translate(105,1549)" d="m0 0" fill="#6F2A37"/>
<path transform="translate(106,1547)" d="m0 0"/>
<path transform="translate(1482,1031)" d="m0 0"/>
<path transform="translate(231,1021)" d="m0 0 2 1z" fill="#F39200"/>
<path transform="translate(250,1009)" d="m0 0 2 1z" fill="#6F2A37"/>
<path transform="translate(253 1e3)" d="m0 0"/>
<path transform="translate(238,982)" d="m0 0" fill="#DF546F"/>
<path transform="translate(236,979)" d="m0 0"/>
<path transform="translate(236,967)" d="m0 0"/>
<path transform="translate(237,965)" d="m0 0" fill="#6F2A37"/>
<path transform="translate(238,963)" d="m0 0" fill="#6F2A37"/>
<path transform="translate(240,960)" d="m0 0" fill="#DF546F"/>
<path transform="translate(243,955)" d="m0 0" fill="#794900"/>
<path transform="translate(371,600)" d="m0 0 2 1z"/>
<path transform="translate(354,600)" d="m0 0 2 1z"/>
<path transform="translate(368,570)" d="m0 0" fill="#F39200"/>
<path transform="translate(371,566)" d="m0 0"/>
<path transform="translate(1232,548)" d="m0 0" fill="#DF546F"/>
<path transform="translate(1233,546)" d="m0 0" fill="#6F2A37"/>
<path transform="translate(1235,543)" d="m0 0" fill="#E97337"/>
<path transform="translate(1238,538)" d="m0 0" fill="#E97337"/>
<path transform="translate(369,538)" d="m0 0" fill="#6F2A37"/>
<path transform="translate(1239,536)" d="m0 0" fill="#DF546F"/>
<path transform="translate(367,535)" d="m0 0"/>
<path transform="translate(364,530)" d="m0 0"/>
<path transform="translate(1130,254)" d="m0 0"/>
<path transform="translate(1135,246)" d="m0 0"/>
<path transform="translate(1138,241)" d="m0 0" fill="#6F2A37"/>
<path transform="translate(1139,239)" d="m0 0"/>
<path transform="translate(629,227)" d="m0 0 2 1z" fill="#6F2A37"/>
<path transform="translate(631,226)" d="m0 0 2 1z" fill="#6F2A37"/>
<path transform="translate(617,222)" d="m0 0"/>
<path transform="translate(634,199)" d="m0 0"/>
<path transform="translate(634,189)" d="m0 0" fill="#6F2A37"/>
<path transform="translate(633,187)" d="m0 0" fill="#794900"/>
<path transform="translate(632,185)" d="m0 0" fill="#6F2A37"/>
<path transform="translate(627,177)" d="m0 0" fill="#DF546F"/>
<path transform="translate(626,175)" d="m0 0" fill="#6F2A37"/>
<path transform="translate(625,173)" d="m0 0"/>
<path transform="translate(1631,1600)" d="m0 0"/>
<path transform="translate(1629,1597)" d="m0 0"/>
<path transform="translate(1628,1596)" d="m0 0"/>
<path transform="translate(1626,1593)" d="m0 0" fill="#DF546F"/>
<path transform="translate(1625,1592)" d="m0 0"/>
<path transform="translate(1623,1589)" d="m0 0"/>
<path transform="translate(99,1560)" d="m0 0"/>
<path transform="translate(100,1558)" d="m0 0" fill="#DF546F"/>
<path transform="translate(102,1555)" d="m0 0" fill="#DF546F"/>
<path transform="translate(103,1553)" d="m0 0"/>
<path transform="translate(98,1504)" d="m0 0"/>
<path transform="translate(1473,1091)" d="m0 0"/>
<path transform="translate(1477,1086)" d="m0 0"/>
<path transform="translate(1478,1085)" d="m0 0" fill="#DF546F"/>
<path transform="translate(1479,1084)" d="m0 0" fill="#DF546F"/>
<path transform="translate(1480,1082)" d="m0 0" fill="#F39200"/>
<path transform="translate(1481,1081)" d="m0 0" fill="#DF546F"/>
<path transform="translate(1482,1080)" d="m0 0" fill="#DF546F"/>
<path transform="translate(1483,1079)" d="m0 0" fill="#F39200"/>
<path transform="translate(1484,1077)" d="m0 0" fill="#DF546F"/>
<path transform="translate(1485,1076)" d="m0 0"/>
<path transform="translate(250,997)" d="m0 0"/>
<path transform="translate(249,996)" d="m0 0"/>
<path transform="translate(248,995)" d="m0 0"/>
<path transform="translate(247,994)" d="m0 0" fill="#DF546F"/>
<path transform="translate(240,985)" d="m0 0" fill="#DF546F"/>
<path transform="translate(239,984)" d="m0 0" fill="#DF546F"/>
<path transform="translate(237,981)" d="m0 0"/>
<path transform="translate(239,962)" d="m0 0"/>
<path transform="translate(241,959)" d="m0 0"/>
<path transform="translate(242,957)" d="m0 0"/>
<path transform="translate(353,599)" d="m0 0"/>
<path transform="translate(358,583)" d="m0 0"/>
<path transform="translate(359,582)" d="m0 0"/>
<path transform="translate(360,581)" d="m0 0"/>
<path transform="translate(361,579)" d="m0 0" fill="#F39200"/>
<path transform="translate(362,578)" d="m0 0" fill="#DF546F"/>
<path transform="translate(363,577)" d="m0 0" fill="#F39200"/>
<path transform="translate(1244,573)" d="m0 0"/>
<path transform="translate(366,573)" d="m0 0" fill="#F39200"/>
<path transform="translate(1243,572)" d="m0 0" fill="#DF546F"/>
<path transform="translate(367,572)" d="m0 0" fill="#F39200"/>
<path transform="translate(1242,571)" d="m0 0" fill="#DF546F"/>
<path transform="translate(1241,570)" d="m0 0" fill="#F39200"/>
<path transform="translate(369,569)" d="m0 0"/>
<path transform="translate(370,568)" d="m0 0"/>
<path transform="translate(372,565)" d="m0 0"/>
<path transform="translate(1235,562)" d="m0 0" fill="#DF546F"/>
<path transform="translate(1234,561)" d="m0 0"/>
<path transform="translate(1234,545)" d="m0 0"/>
<path transform="translate(1236,542)" d="m0 0" fill="#DF546F"/>
<path transform="translate(1237,540)" d="m0 0" fill="#DF546F"/>
<path transform="translate(368,537)" d="m0 0"/>
<path transform="translate(628,237)" d="m0 0"/>
<path transform="translate(618,229)" d="m0 0"/>
<path transform="translate(617,228)" d="m0 0"/>
<path transform="translate(620,218)" d="m0 0"/>
<path transform="translate(623,214)" d="m0 0" fill="#DF546F"/>
<path transform="translate(624,213)" d="m0 0" fill="#F39200"/>
<path transform="translate(628,208)" d="m0 0" fill="#F39200"/>
<path transform="translate(630,205)" d="m0 0" fill="#DF546F"/>
<path transform="translate(631,204)" d="m0 0"/>
<path transform="translate(629,181)" d="m0 0"/>
<path transform="translate(628,179)" d="m0 0"/>
</svg>
